<svg width="20" height="20" viewBox="0 0 20 20" fill="none" xmlns="http://www.w3.org/2000/svg">
<path d="M8.3335 3.125H11.1382C11.0255 3.72328 11.0095 4.33763 11.0942 4.94434C11.2187 5.83501 11.555 6.68306 12.0747 7.41699C12.5945 8.15091 13.2827 8.75003 14.0815 9.16309C14.8805 9.57612 15.7671 9.79124 16.6665 9.79102V9.79004C17.0083 9.79028 17.3481 9.75667 17.6831 9.69531C17.5593 11.1036 16.9465 12.4309 15.939 13.4385C15.0211 14.3563 13.8379 14.9479 12.5698 15.1396C11.7762 15.2596 11.0415 15.9163 11.0415 16.833V17.2725C11.0415 17.5442 10.7723 17.7118 10.5425 17.6152C8.57008 16.7854 6.48851 15.7712 4.90479 14.3975C3.33586 13.0364 2.2915 11.3565 2.2915 9.16602C2.29157 7.56385 2.92819 6.02749 4.06104 4.89453C5.19407 3.7615 6.73115 3.125 8.3335 3.125ZM16.6929 1.84766C17.1076 2.85699 17.893 3.66936 18.8882 4.11719L18.8901 4.11816L19.106 4.21387L18.856 4.32617L18.854 4.32715C17.8827 4.76287 17.1091 5.54615 16.687 6.52344L16.6665 6.57031L16.645 6.52344C16.2224 5.54634 15.4496 4.76241 14.478 4.32715H14.4771L14.2241 4.21387L14.4409 4.11816L14.4438 4.11719C15.44 3.66939 16.2263 2.85603 16.6411 1.8457L16.6401 1.84473L16.6665 1.7832L16.6929 1.84766Z" stroke="#030303" stroke-width="1.25"/>
</svg>
