<svg width="36" height="36" viewBox="0 0 36 36" fill="none" xmlns="http://www.w3.org/2000/svg">
<path d="M0 12C0 5.37258 5.37258 0 12 0H24C30.6274 0 36 5.37258 36 12V24C36 30.6274 30.6274 36 24 36H12C5.37258 36 0 30.6274 0 24V12Z" fill="#16DB65"/>
<path fill-rule="evenodd" clip-rule="evenodd" d="M18.3428 11.3418C21.8651 11.5204 24.6659 14.4333 24.666 18L24.6572 18.3428C24.4787 21.8651 21.5667 24.6658 18 24.666L17.6562 24.6572C14.2478 24.4841 11.5146 21.7513 11.3418 18.3428L11.333 18C11.3332 14.3184 14.3184 11.3332 18 11.333L18.3428 11.3418ZM18 12.583C15.0087 12.5832 12.5832 15.0087 12.583 18C12.5832 20.9913 15.0087 23.4158 18 23.416C20.9913 23.4158 23.4158 20.9913 23.416 18C23.4159 15.0087 20.9913 12.5832 18 12.583Z" fill="white"/>
<path d="M18 15V17.6667L19.6667 19.3333" stroke="white" stroke-width="1.25" stroke-linecap="round"/>
</svg>
