<svg width="20" height="20" viewBox="0 0 20 20" fill="none" xmlns="http://www.w3.org/2000/svg">
<path d="M2.0835 5.41732C2.0835 3.84597 2.0835 3.0603 2.57165 2.57214C3.05981 2.08398 3.84548 2.08398 5.41683 2.08398C6.98818 2.08398 7.77385 2.08398 8.26201 2.57214C8.75016 3.0603 8.75016 3.84597 8.75016 5.41732C8.75016 6.98867 8.75016 7.77434 8.26201 8.2625C7.77385 8.75065 6.98818 8.75065 5.41683 8.75065C3.84548 8.75065 3.05981 8.75065 2.57165 8.2625C2.0835 7.77434 2.0835 6.98867 2.0835 5.41732Z" stroke="white" stroke-width="1.25"/>
<path d="M11.25 14.5833C11.25 13.012 11.25 12.2263 11.7382 11.7382C12.2263 11.25 13.012 11.25 14.5833 11.25C16.1547 11.25 16.9404 11.25 17.4285 11.7382C17.9167 12.2263 17.9167 13.012 17.9167 14.5833C17.9167 16.1547 17.9167 16.9404 17.4285 17.4285C16.9404 17.9167 16.1547 17.9167 14.5833 17.9167C13.012 17.9167 12.2263 17.9167 11.7382 17.4285C11.25 16.9404 11.25 16.1547 11.25 14.5833Z" stroke="white" stroke-width="1.25"/>
<path d="M2.0835 14.5833C2.0835 13.012 2.0835 12.2263 2.57165 11.7382C3.05981 11.25 3.84548 11.25 5.41683 11.25C6.98818 11.25 7.77385 11.25 8.26201 11.7382C8.75016 12.2263 8.75016 13.012 8.75016 14.5833C8.75016 16.1547 8.75016 16.9404 8.26201 17.4285C7.77385 17.9167 6.98818 17.9167 5.41683 17.9167C3.84548 17.9167 3.05981 17.9167 2.57165 17.4285C2.0835 16.9404 2.0835 16.1547 2.0835 14.5833Z" stroke="white" stroke-width="1.25"/>
<path d="M11.25 5.41732C11.25 3.84597 11.25 3.0603 11.7382 2.57214C12.2263 2.08398 13.012 2.08398 14.5833 2.08398C16.1547 2.08398 16.9404 2.08398 17.4285 2.57214C17.9167 3.0603 17.9167 3.84597 17.9167 5.41732C17.9167 6.98867 17.9167 7.77434 17.4285 8.2625C16.9404 8.75065 16.1547 8.75065 14.5833 8.75065C13.012 8.75065 12.2263 8.75065 11.7382 8.2625C11.25 7.77434 11.25 6.98867 11.25 5.41732Z" stroke="white" stroke-width="1.25"/>
</svg>
