<svg width="36" height="36" viewBox="0 0 36 36" fill="none" xmlns="http://www.w3.org/2000/svg">
<path d="M0 12C0 5.37258 5.37258 0 12 0H24C30.6274 0 36 5.37258 36 12V24C36 30.6274 30.6274 36 24 36H12C5.37258 36 0 30.6274 0 24V12Z" fill="#FFDC21"/>
<path d="M12.3435 21.8608L16.316 17.8883L18.7519 20.3242C19.0592 20.6315 19.5539 20.6165 19.8388 20.2943L25.2129 14.2456C25.4752 13.9533 25.4602 13.5035 25.1829 13.2187C25.1109 13.1469 25.025 13.0905 24.9304 13.053C24.8359 13.0154 24.7347 12.9975 24.633 13.0003C24.5314 13.0031 24.4313 13.0266 24.339 13.0693C24.2467 13.112 24.164 13.173 24.0961 13.2487L19.3066 18.6303L16.8406 16.1644C16.7713 16.0949 16.6889 16.0397 16.5983 16.0021C16.5076 15.9645 16.4104 15.9452 16.3122 15.9452C16.2141 15.9452 16.1169 15.9645 16.0262 16.0021C15.9355 16.0397 15.8532 16.0949 15.7838 16.1644L11.2192 20.7365C11.1497 20.8058 11.0946 20.8882 11.057 20.9789C11.0194 21.0695 11 21.1667 11 21.2649C11 21.3631 11.0194 21.4603 11.057 21.5509C11.0946 21.6416 11.1497 21.724 11.2192 21.7933L11.2867 21.8608C11.579 22.1531 12.0587 22.1531 12.3435 21.8608Z" fill="#030303"/>
</svg>
