<svg width="20" height="20" viewBox="0 0 20 20" fill="none" xmlns="http://www.w3.org/2000/svg">
<path d="M4.1665 3.125H7.24951C7.70707 3.125 7.92079 3.13199 8.05225 3.17578C8.30804 3.26105 8.48173 3.32252 8.65283 3.43652C8.84218 3.56275 8.96581 3.6831 9.30811 4.02539L10.0747 4.79199H14.8335C15.8579 4.79199 16.3015 4.80191 16.7388 4.98535C17.1003 5.16986 17.3286 5.39864 17.5132 5.75977C17.6973 6.19754 17.7085 6.64111 17.7085 7.66699V14C17.7085 15.021 17.6967 15.4646 17.5151 15.9004C17.3459 16.2299 17.0615 16.4762 16.7124 16.6904C16.2833 16.8636 15.8378 16.875 14.8335 16.875H5.1665C4.14345 16.875 3.69979 16.8643 3.26318 16.6816C2.89899 16.4962 2.66926 16.2668 2.48389 15.9023C2.30173 15.4661 2.2915 15.0221 2.2915 14V5C2.2915 3.92851 3.09502 3.125 4.1665 3.125Z" stroke="#030303" stroke-width="1.25"/>
<path d="M15 8L12 8" stroke="#030303" stroke-width="1.25" stroke-linecap="round"/>
</svg>
