<svg width="36" height="36" viewBox="0 0 36 36" fill="none" xmlns="http://www.w3.org/2000/svg">
<path d="M0 12C0 5.37258 5.37258 0 12 0H24C30.6274 0 36 5.37258 36 12V24C36 30.6274 30.6274 36 24 36H12C5.37258 36 0 30.6274 0 24V12Z" fill="#EF233C"/>
<path d="M12 16.6668C12 14.1527 12 12.8956 12.781 12.1145C13.5621 11.3335 14.8192 11.3335 17.3333 11.3335H18.6667C21.1808 11.3335 22.4379 11.3335 23.219 12.1145C24 12.8956 24 14.1527 24 16.6668V19.3335C24 21.8477 24 23.1047 23.219 23.8858C22.4379 24.6668 21.1808 24.6668 18.6667 24.6668H17.3333C14.8192 24.6668 13.5621 24.6668 12.781 23.8858C12 23.1047 12 21.8477 12 19.3335V16.6668Z" stroke="white" stroke-width="1.25"/>
<path d="M15.3335 16.6665H20.6668" stroke="white" stroke-width="1.25" stroke-linecap="round"/>
<path d="M15.3335 19.3335H18.6668" stroke="white" stroke-width="1.25" stroke-linecap="round"/>
</svg>
