<svg width="40" height="40" viewBox="0 0 40 40" fill="none" xmlns="http://www.w3.org/2000/svg">
<path d="M0 12C0 5.37258 5.37258 0 12 0H28C34.6274 0 40 5.37258 40 12V28C40 34.6274 34.6274 40 28 40H12C5.37258 40 0 34.6274 0 28V12Z" fill="#F1EFE3"/>
<path d="M19.8733 12.7731C20.6685 11.9781 21.9577 11.978 22.7528 12.7731C23.5477 13.5683 23.5477 14.8575 22.7528 15.6527C21.9577 16.4478 20.6685 16.4476 19.8733 15.6527C19.0781 14.8574 19.0781 13.5683 19.8733 12.7731Z" stroke="#3FA760" stroke-width="0.944301"/>
<path d="M18.4766 17.3633C18.9378 17.1589 19.4456 17.0938 19.9385 17.166H19.9395L21.1191 17.3398H21.1201C21.7887 17.4393 22.3919 17.7877 22.8125 18.3174L22.8135 18.3184L22.9688 18.5146C23.1427 18.7334 23.4559 18.8037 23.71 18.6787C24.2734 18.3992 24.9694 18.596 25.2969 19.1406C25.645 19.7163 25.4575 20.4675 24.8838 20.8145L24.8809 20.8164L24.7061 20.9199L24.7051 20.9189C23.8606 21.4264 22.8623 21.5112 21.9766 21.1924L21.7617 22.3789L22.5176 22.957L22.7881 23.1826C23.3968 23.735 23.8431 24.4603 24.0527 25.2607L24.3877 26.5332V26.5361C24.486 26.917 24.4218 27.3248 24.1953 27.6562C23.9723 27.9825 23.6194 28.2 23.2227 28.2461L23.2217 28.2441C23.1683 28.2513 23.1145 28.2568 23.0586 28.2568C22.4565 28.2567 21.915 27.8619 21.7441 27.2666V27.2656L21.4365 26.2227V26.2207C21.3133 25.7945 20.9875 25.4549 20.5674 25.3135L20.5654 25.3125L20.1562 25.1729L20.0537 25.416V25.417C19.5762 26.5341 18.5817 27.3508 17.3945 27.6064H17.3936L16.2432 27.8516C15.8211 27.9417 15.3879 27.8338 15.0557 27.5664C14.72 27.2962 14.5283 26.8909 14.5283 26.4629C14.5284 25.9124 14.8412 25.4198 15.3311 25.1855L15.4316 25.1426L17.1787 24.457L17.5986 22.4492C17.4627 22.5345 17.3086 22.5949 17.1416 22.6191H17.1387C16.8094 22.6648 16.4838 22.5683 16.2334 22.3672L16.2295 22.3643C15.9793 22.1588 15.8183 21.8559 15.7988 21.5244L15.791 21.1992C15.818 19.5853 16.789 18.106 18.2812 17.4463L18.2861 17.4443L18.4766 17.3623V17.3633Z" stroke="#3FA760" stroke-width="0.944301"/>
</svg>
