<svg width="40" height="40" viewBox="0 0 40 40" fill="none" xmlns="http://www.w3.org/2000/svg">
<path d="M0 12C0 5.37258 5.37258 0 12 0H28C34.6274 0 40 5.37258 40 12V28C40 34.6274 34.6274 40 28 40H12C5.37258 40 0 34.6274 0 28V12Z" fill="#F1EFE3"/>
<path d="M12.5 18.3332C12.5 15.1905 12.5 13.6191 13.4763 12.6428C14.4526 11.6665 16.024 11.6665 19.1667 11.6665H20.8333C23.976 11.6665 25.5474 11.6665 26.5237 12.6428C27.5 13.6191 27.5 15.1905 27.5 18.3332V21.6665C27.5 24.8092 27.5 26.3805 26.5237 27.3569C25.5474 28.3332 23.976 28.3332 20.8333 28.3332H19.1667C16.024 28.3332 14.4526 28.3332 13.4763 27.3569C12.5 26.3805 12.5 24.8092 12.5 21.6665V18.3332Z" stroke="#45F25C" stroke-width="1.25"/>
<path d="M16.6665 18.3335H23.3332" stroke="#45F25C" stroke-width="1.25" stroke-linecap="round"/>
<path d="M16.6665 21.6665H20.8332" stroke="#45F25C" stroke-width="1.25" stroke-linecap="round"/>
</svg>
