<svg width="40" height="40" viewBox="0 0 40 40" fill="none" xmlns="http://www.w3.org/2000/svg">
<path d="M0 12C0 5.37258 5.37258 0 12 0H28C34.6274 0 40 5.37258 40 12V28C40 34.6274 34.6274 40 28 40H12C5.37258 40 0 34.6274 0 28V12Z" fill="#F1EFE3"/>
<path d="M26.9265 20.5387L27.3579 18.9289C27.8614 17.0496 28.1132 16.11 27.9236 15.2969C27.7739 14.6548 27.4371 14.0716 26.956 13.6209C26.3466 13.0501 25.4069 12.7984 23.5277 12.2948C21.6485 11.7913 20.7089 11.5395 19.8957 11.7291C19.2537 11.8788 18.6704 12.2156 18.2198 12.6967C17.7311 13.2185 17.4762 13.9823 17.097 15.3707C17.0333 15.6039 16.9661 15.8547 16.8937 16.1249L16.8937 16.125L16.4623 17.7349C15.9588 19.6141 15.707 20.5537 15.8966 21.3669C16.0463 22.0089 16.383 22.5922 16.8642 23.0428C17.4736 23.6136 18.4132 23.8654 20.2925 24.3689L20.2925 24.3689C21.9863 24.8228 22.9168 25.0721 23.6793 24.978C23.7628 24.9677 23.8442 24.9533 23.9245 24.9346C24.5665 24.7849 25.1498 24.4482 25.6004 23.967C26.1712 23.3576 26.423 22.418 26.9265 20.5387Z" stroke="#21A6FF" stroke-width="1.25"/>
<path d="M23.679 24.9784C23.5053 25.5105 23.1997 25.9918 22.789 26.3766C22.1796 26.9473 21.24 27.1991 19.3607 27.7026C17.4815 28.2062 16.5419 28.4579 15.7287 28.2683C15.0867 28.1186 14.5034 27.7819 14.0528 27.3007C13.482 26.6913 13.2302 25.7517 12.7267 23.8725L12.2953 22.2626C11.7918 20.3834 11.54 19.4437 11.7296 18.6306C11.8793 17.9886 12.216 17.4053 12.6972 16.9546C13.3066 16.3839 14.2462 16.1321 16.1255 15.6286C16.481 15.5333 16.8029 15.4471 17.0967 15.3711" stroke="#21A6FF" stroke-width="1.25"/>
<path d="M19.9757 17.7303C19.6423 17.6409 19.2996 17.8388 19.2103 18.1722C19.1209 18.5056 19.3188 18.8483 19.6522 18.9377L19.814 18.334L19.9757 17.7303ZM23.6769 20.0161C24.0103 20.1054 24.353 19.9076 24.4424 19.5742C24.5317 19.2407 24.3338 18.898 24.0004 18.8087L23.8387 19.4124L23.6769 20.0161ZM19.814 18.334L19.6522 18.9377L23.6769 20.0161L23.8387 19.4124L24.0004 18.8087L19.9757 17.7303L19.814 18.334Z" fill="#21A6FF"/>
<path d="M19.3283 20.1443C18.9948 20.055 18.6521 20.2529 18.5628 20.5863C18.4735 20.9197 18.6713 21.2624 19.0047 21.3518L19.1665 20.748L19.3283 20.1443ZM21.4196 21.9988C21.753 22.0881 22.0957 21.8903 22.185 21.5569C22.2744 21.2234 22.0765 20.8807 21.7431 20.7914L21.5813 21.3951L21.4196 21.9988ZM19.1665 20.748L19.0047 21.3518L21.4196 21.9988L21.5813 21.3951L21.7431 20.7914L19.3283 20.1443L19.1665 20.748Z" fill="#21A6FF"/>
</svg>
