<svg width="40" height="40" viewBox="0 0 40 40" fill="none" xmlns="http://www.w3.org/2000/svg">
<path d="M0 12C0 5.37258 5.37258 0 12 0H28C34.6274 0 40 5.37258 40 12V28C40 34.6274 34.6274 40 28 40H12C5.37258 40 0 34.6274 0 28V12Z" fill="#F1EFE3"/>
<path d="M19.9995 12.291C24.2376 12.291 27.7083 15.761 27.7085 19.999C27.7085 24.2372 24.2377 27.708 19.9995 27.708C15.7615 27.7078 12.2915 24.2371 12.2915 19.999C12.2917 15.7611 15.7616 12.2912 19.9995 12.291ZM19.9995 15.208C18.1022 15.2082 16.8745 16.876 16.8745 18.333C16.8746 18.7248 17.008 19.1002 17.2866 19.3789C17.5654 19.6577 17.9415 19.791 18.3335 19.791C18.4093 19.791 18.4841 19.7835 18.5581 19.7734C18.548 19.8477 18.5415 19.9229 18.5415 19.999V20.833C18.5416 21.2249 18.6749 21.6002 18.9536 21.8789C19.02 21.9453 19.0923 22.0027 19.1685 22.0527C18.7646 22.3448 18.5415 22.8414 18.5415 23.333C18.5417 24.2538 19.3194 24.791 20.0835 24.791C21.0043 24.7908 21.5415 24.0131 21.5415 23.249C21.5414 22.8571 21.4081 22.4819 21.1294 22.2031C21.0551 22.1289 20.9736 22.0656 20.8872 22.0117C20.9424 21.9713 20.9969 21.9284 21.0464 21.8789C21.2566 21.6686 21.3831 21.403 21.4331 21.1172C22.4863 20.6525 23.1244 19.5749 23.1245 18.333C23.1245 16.5712 21.7614 15.208 19.9995 15.208ZM19.9995 18.124C20.1075 18.124 20.1488 18.1581 20.1616 18.1709C20.1745 18.1837 20.2085 18.225 20.2085 18.333C20.2084 18.4236 20.1799 18.4761 20.1626 18.4961C20.1552 18.5046 20.1459 18.5129 20.1284 18.5205C20.11 18.5285 20.0702 18.541 19.9995 18.541C19.9234 18.541 19.8482 18.5475 19.7739 18.5576C19.784 18.4836 19.7915 18.4088 19.7915 18.333C19.7915 18.3482 19.7889 18.336 19.8032 18.3018C19.8165 18.2699 19.8379 18.2339 19.8657 18.2021C19.923 18.1368 19.9712 18.1241 19.9995 18.124Z" stroke="#FF8921" stroke-width="1.25"/>
</svg>
