<svg width="40" height="40" viewBox="0 0 40 40" fill="none" xmlns="http://www.w3.org/2000/svg">
<path d="M0 12C0 5.37258 5.37258 0 12 0H28C34.6274 0 40 5.37258 40 12V28C40 34.6274 34.6274 40 28 40H12C5.37258 40 0 34.6274 0 28V12Z" fill="#F1EFE3"/>
<path d="M23.0459 13.1572C23.2588 13.1131 23.4681 13.1156 23.6816 13.1689L23.6963 13.1729L23.7109 13.1758C23.7756 13.1888 23.846 13.2219 23.9551 13.3164C24.0913 13.4345 24.182 13.5453 24.3916 13.7549L25.8076 15.1709C26.2694 15.6326 26.3614 15.7522 26.3936 15.8809C26.452 16.1145 26.4519 16.3435 26.3936 16.5771L26.3896 16.5918L26.3867 16.6064C26.3738 16.6712 26.3407 16.7424 26.2461 16.8516C26.1282 16.9876 26.017 17.0777 25.8076 17.2871L25.8037 17.292L18.2197 25.042L17.1807 26.1045H26.667C26.7747 26.1046 26.8163 26.1376 26.8291 26.1504C26.8421 26.1634 26.875 26.205 26.875 26.3125C26.875 26.42 26.8421 26.4616 26.8291 26.4746C26.8163 26.4874 26.7747 26.5204 26.667 26.5205H13.333C13.2253 26.5204 13.1837 26.4874 13.1709 26.4746C13.1579 26.4616 13.125 26.42 13.125 26.3125V22.9795C13.125 22.9274 13.1331 22.9117 13.1338 22.9102C13.1357 22.9059 13.1459 22.8843 13.1924 22.8379L22.2754 13.7549C22.6174 13.4129 22.8112 13.2797 23.0459 13.1572Z" stroke="#BE306C" stroke-width="1.25"/>
</svg>
