<svg width="40" height="40" viewBox="0 0 40 40" fill="none" xmlns="http://www.w3.org/2000/svg">
<path d="M0 12C0 5.37258 5.37258 0 12 0H28C34.6274 0 40 5.37258 40 12V28C40 34.6274 34.6274 40 28 40H12C5.37258 40 0 34.6274 0 28V12Z" fill="#F1EFE3"/>
<path d="M16 13.667V14.292V14.292V13.667ZM17.6826 13.7031L17.7335 13.0802L17.7335 13.0802L17.6826 13.7031ZM18.8613 13.9941L19.1451 13.4373L19.145 13.4372L18.8613 13.9941ZM19.999 15.0127L19.4779 15.3577C19.5936 15.5326 19.7894 15.6377 19.9992 15.6377C20.2089 15.6376 20.4046 15.5324 20.5203 15.3574L19.999 15.0127ZM21.1377 13.9941L20.854 13.4373L20.8539 13.4373L21.1377 13.9941ZM22.3174 13.7031L22.2665 13.0802L22.2665 13.0802L22.3174 13.7031ZM24 13.667V13.042V13.667ZM26.7549 13.6797L26.8058 13.0568L26.8058 13.0568L26.7549 13.6797ZM27.2725 13.8125L27.5565 13.2558L27.5562 13.2556L27.2725 13.8125ZM27.8545 14.3945L28.4114 14.1109L28.4113 14.1107L27.8545 14.3945ZM27.9863 14.9121L28.6092 14.861L28.6092 14.8609L27.9863 14.9121ZM28 15.5L27.375 15.5V15.5H28ZM28 22.834H27.375V22.834H28ZM27.9863 23.4219L28.6092 23.4732L28.6092 23.4731L27.9863 23.4219ZM27.8545 23.9385L28.4113 24.2223L28.4114 24.2221L27.8545 23.9385ZM27.2725 24.5215L27.5561 25.0784L27.5563 25.0783L27.2725 24.5215ZM26.7559 24.6543L26.8068 25.2772L26.8069 25.2772L26.7559 24.6543ZM23.8076 24.667V24.042H23.8076L23.8076 24.667ZM22.4229 24.7529L22.2412 24.1549L22.2412 24.1549L22.4229 24.7529ZM21.7354 25.1221L21.3385 24.6392L21.3384 24.6393L21.7354 25.1221ZM20.8955 26.2256L21.4154 26.5724L21.4155 26.5723L20.8955 26.2256ZM20.416 26.9443L20.9358 27.2914L20.9359 27.2912L20.416 26.9443ZM20 27.167L20 27.792H20L20 27.167ZM19.584 26.9443L19.064 27.291L19.0642 27.2914L19.584 26.9443ZM19.0996 26.2178L18.5796 26.5645H18.5796L19.0996 26.2178ZM18.2656 25.1221L18.6626 24.6393L18.6625 24.6392L18.2656 25.1221ZM17.5762 24.7529L17.7578 24.1549L17.7578 24.1549L17.5762 24.7529ZM16.1924 24.667L16.1924 24.042H16.1924V24.667ZM13.832 24.667V24.042H13.832L13.832 24.667ZM13.2451 24.6543L13.1942 25.2772L13.1943 25.2772L13.2451 24.6543ZM12.7275 24.5215L12.4436 25.0783L12.4438 25.0784L12.7275 24.5215ZM12.1455 23.9385L11.5886 24.2221L11.5887 24.2223L12.1455 23.9385ZM12.0127 23.4219L11.3898 23.4728L11.3898 23.4729L12.0127 23.4219ZM12 22.834L12.625 22.834V22.834H12ZM12 15.5H12.625V15.5L12 15.5ZM12.0127 14.9121L11.3898 14.8612L11.3898 14.8613L12.0127 14.9121ZM12.1455 14.3945L11.5887 14.1106L11.5886 14.1109L12.1455 14.3945ZM12.7275 13.8125L12.4438 13.2556L12.4436 13.2557L12.7275 13.8125ZM13.2451 13.6797L13.1942 13.0568L13.1942 13.0568L13.2451 13.6797ZM13.833 13.667L13.833 14.292H13.833V13.667ZM16 13.667V14.292C16.7013 14.292 17.221 14.2925 17.6317 14.326L17.6826 13.7031L17.7335 13.0802C17.2604 13.0415 16.682 13.042 16 13.042V13.667ZM17.6826 13.7031L17.6317 14.326C18.0406 14.3595 18.3309 14.4254 18.5777 14.5511L18.8613 13.9941L19.145 13.4372C18.6928 13.2069 18.2198 13.1199 17.7335 13.0802L17.6826 13.7031ZM18.8613 13.9941L18.5776 14.551C18.9423 14.7369 19.2514 15.0156 19.4779 15.3577L19.999 15.0127L20.5202 14.6677C20.1773 14.1498 19.7062 13.7232 19.1451 13.4373L18.8613 13.9941ZM19.999 15.0127L20.5203 15.3574C20.7462 15.0159 21.0558 14.7374 21.4215 14.551L21.1377 13.9941L20.8539 13.4373C20.2931 13.7231 19.8209 14.1489 19.4777 14.6679L19.999 15.0127ZM21.1377 13.9941L21.4214 14.551C21.6681 14.4254 21.9588 14.3595 22.3683 14.326L22.3174 13.7031L22.2665 13.0802C21.7804 13.1199 21.3065 13.2067 20.854 13.4373L21.1377 13.9941ZM22.3174 13.7031L22.3682 14.3261C22.779 14.2925 23.2987 14.292 24 14.292V13.667V13.042C23.318 13.042 22.7396 13.0416 22.2665 13.0802L22.3174 13.7031ZM24 13.667V14.292H26.166V13.667V13.042H24V13.667ZM26.166 13.667V14.292C26.4021 14.292 26.5714 14.2918 26.704 14.3026L26.7549 13.6797L26.8058 13.0568C26.6102 13.0408 26.3801 13.042 26.166 13.042V13.667ZM26.7549 13.6797L26.7039 14.3026C26.8337 14.3132 26.9194 14.3341 26.9887 14.3694L27.2725 13.8125L27.5562 13.2556C27.2829 13.1164 27.0157 13.0739 26.8058 13.0568L26.7549 13.6797ZM27.2725 13.8125L26.9885 14.3692C27.1219 14.4373 27.23 14.5456 27.2977 14.6784L27.8545 14.3945L28.4113 14.1107C28.2238 13.7429 27.9247 13.4436 27.5565 13.2558L27.2725 13.8125ZM27.8545 14.3945L27.2975 14.6781C27.332 14.7458 27.3525 14.8305 27.3634 14.9633L27.9863 14.9121L28.6092 14.8609C28.5922 14.6539 28.5513 14.3855 28.4114 14.1109L27.8545 14.3945ZM27.9863 14.9121L27.3634 14.9633C27.3744 15.0964 27.375 15.2671 27.375 15.5L28 15.5L28.625 15.5C28.625 15.283 28.6252 15.0559 28.6092 14.861L27.9863 14.9121ZM28 15.5H27.375V22.834H28H28.625V15.5H28ZM28 22.834H27.375C27.375 23.0671 27.3744 23.2376 27.3634 23.3706L27.9863 23.4219L28.6092 23.4731C28.6253 23.2782 28.625 23.051 28.625 22.834H28ZM27.9863 23.4219L27.3634 23.3705C27.3525 23.5027 27.3321 23.587 27.2975 23.6549L27.8545 23.9385L28.4114 24.2221C28.551 23.9481 28.5921 23.6806 28.6092 23.4732L27.9863 23.4219ZM27.8545 23.9385L27.2977 23.6546C27.2296 23.7882 27.1214 23.897 26.9886 23.9647L27.2725 24.5215L27.5563 25.0783C27.9272 24.8892 28.225 24.5878 28.4113 24.2223L27.8545 23.9385ZM27.2725 24.5215L26.9888 23.9646C26.9193 24 26.8337 24.0208 26.7048 24.0314L26.7559 24.6543L26.8069 25.2772C27.0171 25.26 27.2835 25.2173 27.5561 25.0784L27.2725 24.5215ZM26.7559 24.6543L26.7049 24.0314C26.5726 24.0422 26.4036 24.042 26.168 24.042V24.667V25.292C26.3816 25.292 26.6114 25.2932 26.8068 25.2772L26.7559 24.6543ZM26.168 24.667V24.042H23.8076V24.667V25.292H26.168V24.667ZM23.8076 24.667L23.8076 24.042C23.0362 24.042 22.6191 24.0401 22.2412 24.1549L22.4229 24.7529L22.6045 25.351C22.7613 25.3033 22.9516 25.292 23.8076 25.292L23.8076 24.667ZM22.4229 24.7529L22.2412 24.1549C21.9097 24.2556 21.6038 24.4212 21.3385 24.6392L21.7354 25.1221L22.1322 25.6049C22.2731 25.4891 22.4333 25.403 22.6045 25.3509L22.4229 24.7529ZM21.7354 25.1221L21.3384 24.6393C21.0336 24.8899 20.8039 25.2362 20.3755 25.8789L20.8955 26.2256L21.4155 26.5723C21.8894 25.8614 22.0053 25.7092 22.1323 25.6049L21.7354 25.1221ZM20.8955 26.2256L20.3756 25.8787L19.8961 26.5975L20.416 26.9443L20.9359 27.2912L21.4154 26.5724L20.8955 26.2256ZM20.416 26.9443L19.8963 26.5972C19.9192 26.563 19.9577 26.542 20 26.542L20 27.167L20 27.792C20.3764 27.792 20.7274 27.6035 20.9358 27.2914L20.416 26.9443ZM20 27.167L20 26.542C20.0423 26.542 20.0808 26.5629 20.1038 26.5973L19.584 26.9443L19.0642 27.2914C19.2726 27.6035 19.6236 27.792 20 27.792L20 27.167ZM19.584 26.9443L20.104 26.5976L19.6196 25.8711L19.0996 26.2178L18.5796 26.5645L19.064 27.291L19.584 26.9443ZM19.0996 26.2178L19.6196 25.8711C19.1947 25.2336 18.9661 24.8889 18.6626 24.6393L18.2656 25.1221L17.8687 25.6048C17.9944 25.7082 18.1093 25.859 18.5796 26.5645L19.0996 26.2178ZM18.2656 25.1221L18.6625 24.6392C18.3966 24.4207 18.0889 24.2555 17.7578 24.1549L17.5762 24.7529L17.3945 25.351C17.5677 25.4035 17.7293 25.4903 17.8688 25.6049L18.2656 25.1221ZM17.5762 24.7529L17.7578 24.1549C17.3799 24.0402 16.9639 24.042 16.1924 24.042L16.1924 24.667L16.1924 25.292C17.0482 25.292 17.2377 25.3033 17.3946 25.351L17.5762 24.7529ZM16.1924 24.667V24.042H13.832V24.667V25.292H16.1924V24.667ZM13.832 24.667L13.832 24.042C13.5968 24.042 13.4282 24.0422 13.2959 24.0314L13.2451 24.6543L13.1943 25.2772C13.3894 25.2931 13.6184 25.292 13.832 25.292L13.832 24.667ZM13.2451 24.6543L13.2961 24.0314C13.1665 24.0208 13.0805 23.9999 13.0112 23.9646L12.7275 24.5215L12.4438 25.0784C12.717 25.2175 12.9844 25.2601 13.1942 25.2772L13.2451 24.6543ZM12.7275 24.5215L13.0115 23.9647C12.8789 23.8971 12.7705 23.7884 12.7023 23.6546L12.1455 23.9385L11.5887 24.2223C11.7755 24.5888 12.0738 24.8897 12.4436 25.0783L12.7275 24.5215ZM12.1455 23.9385L12.7024 23.6548C12.667 23.5852 12.6462 23.4999 12.6356 23.3708L12.0127 23.4219L11.3898 23.4729C11.407 23.6832 11.4497 23.9495 11.5886 24.2221L12.1455 23.9385ZM12.0127 23.4219L12.6356 23.371C12.6248 23.2386 12.625 23.0698 12.625 22.834L12 22.834L11.375 22.834C11.375 23.0479 11.3738 23.2774 11.3898 23.4728L12.0127 23.4219ZM12 22.834H12.625V15.5H12H11.375V22.834H12ZM12 15.5L12.625 15.5C12.625 15.2643 12.6248 15.0954 12.6356 14.9629L12.0127 14.9121L11.3898 14.8613C11.3738 15.0567 11.375 15.286 11.375 15.5L12 15.5ZM12.0127 14.9121L12.6356 14.963C12.6462 14.8335 12.6671 14.7476 12.7025 14.6781L12.1455 14.3945L11.5886 14.1109C11.4495 14.384 11.4069 14.6512 11.3898 14.8612L12.0127 14.9121ZM12.1455 14.3945L12.7023 14.6785C12.7701 14.5454 12.8784 14.4372 13.0115 14.3693L12.7275 13.8125L12.4436 13.2557C12.0757 13.4434 11.7764 13.7426 11.5887 14.1106L12.1455 14.3945ZM12.7275 13.8125L13.0113 14.3694C13.0806 14.3341 13.1662 14.3132 13.296 14.3026L13.2451 13.6797L13.1942 13.0568C12.9843 13.0739 12.7171 13.1164 12.4438 13.2556L12.7275 13.8125ZM13.2451 13.6797L13.296 14.3026C13.4285 14.2918 13.597 14.292 13.833 14.292L13.833 13.667L13.833 13.042C13.6189 13.042 13.3897 13.0408 13.1942 13.0568L13.2451 13.6797ZM13.833 13.667V14.292H16V13.667V13.042H13.833V13.667Z" fill="#456BF2"/>
</svg>
