<svg width="40" height="40" viewBox="0 0 40 40" fill="none" xmlns="http://www.w3.org/2000/svg">
<path d="M0 12C0 5.37258 5.37258 0 12 0H28C34.6274 0 40 5.37258 40 12V28C40 34.6274 34.6274 40 28 40H12C5.37258 40 0 34.6274 0 28V12Z" fill="#F1EFE3"/>
<path d="M20 23.1245C21.982 23.1245 23.7323 23.6412 24.9678 24.4585C26.2033 25.2759 26.8749 26.3524 26.875 27.4995C26.875 27.6066 26.8422 27.6484 26.8291 27.6616C26.8163 27.6745 26.7747 27.7084 26.667 27.7085H13.333C13.2253 27.7084 13.1837 27.6745 13.1709 27.6616C13.1578 27.6484 13.125 27.6066 13.125 27.4995C13.1251 26.3524 13.7967 25.2759 15.0322 24.4585C16.2677 23.6412 18.018 23.1245 20 23.1245ZM20 12.2915C22.4048 12.2915 24.375 14.2617 24.375 16.6665C24.375 19.0713 22.4048 21.0415 20 21.0415C17.5952 21.0415 15.625 19.0713 15.625 16.6665C15.625 14.2617 17.5952 12.2915 20 12.2915Z" stroke="#030303" stroke-width="1.25"/>
</svg>
