<svg width="40" height="40" viewBox="0 0 40 40" fill="none" xmlns="http://www.w3.org/2000/svg">
<path d="M0 12C0 5.37258 5.37258 0 12 0H28C34.6274 0 40 5.37258 40 12V28C40 34.6274 34.6274 40 28 40H12C5.37258 40 0 34.6274 0 28V12Z" fill="#F1EFE3"/>
<path d="M24.9998 15.085C26.0833 15.1915 26.8125 15.4324 27.3569 15.9767C28.3332 16.953 28.3332 18.5244 28.3332 21.6671C28.3332 24.8097 28.3332 26.3811 27.3569 27.3574C26.3805 28.3337 24.8092 28.3337 21.6665 28.3337H18.3332C15.1905 28.3337 13.6191 28.3337 12.6428 27.3574C11.6665 26.3811 11.6665 24.8097 11.6665 21.6671C11.6665 18.5244 11.6665 16.953 12.6428 15.9767C13.1871 15.4324 13.9164 15.1915 14.9998 15.085" stroke="#E1D82B" stroke-width="1.25"/>
<path d="M16.7991 19.8324L16.4393 19.5326C15.7315 18.9428 15.3776 18.6479 15.1888 18.2447C15 17.8416 15 17.381 15 16.4597V15.8332C15 13.869 15 12.8869 15.6102 12.2767C16.2204 11.6665 17.2025 11.6665 19.1667 11.6665H20.8333C22.7975 11.6665 23.7796 11.6665 24.3898 12.2767C25 12.8869 25 13.869 25 15.8332V16.4597C25 17.381 25 17.8416 24.8112 18.2447C24.6224 18.6479 24.2685 18.9428 23.5607 19.5326L23.2009 19.8324C21.6704 21.1078 20.9051 21.7456 20 21.7456C19.0949 21.7456 18.3296 21.1078 16.7991 19.8324Z" stroke="#E1D82B" stroke-width="1.25" stroke-linecap="round"/>
<path d="M15 18.3335L16.7991 19.8327C18.3296 21.1082 19.0949 21.7459 20 21.7459C20.9051 21.7459 21.6704 21.1082 23.2009 19.8327L25 18.3335" stroke="#E1D82B" stroke-width="1.25" stroke-linecap="round"/>
<path d="M18.3335 15H21.6668" stroke="#E1D82B" stroke-width="1.25" stroke-linecap="round"/>
<path d="M19.1665 17.5H20.8332" stroke="#E1D82B" stroke-width="1.25" stroke-linecap="round"/>
</svg>
