<svg width="20" height="20" viewBox="0 0 20 20" fill="none" xmlns="http://www.w3.org/2000/svg">
<g clip-path="url(#clip0_54546_14834)">
<path d="M10.5245 5.01222C10.3102 4.58198 9.69177 4.57784 9.47545 5.01222L5.37388 13.2544C5.28084 13.4414 5.29431 13.6637 5.40927 13.838L7.65623 17.2459V19.4139C7.65623 19.7375 7.91857 19.9998 8.24216 19.9998H11.7578C12.0814 19.9998 12.3437 19.7375 12.3437 19.4139V17.2459L14.5907 13.838C14.7056 13.6637 14.7191 13.4414 14.6261 13.2544L10.5245 5.01222ZM11.1719 18.828H8.8281V17.6561H11.1719V18.828ZM11.4423 16.4842H8.55767L6.5733 13.4745L9.41404 7.76593V13.5155C9.41404 13.8391 9.67638 14.1014 9.99998 14.1014C10.3236 14.1014 10.5859 13.8391 10.5859 13.5155V7.76593L13.4267 13.4745L11.4423 16.4842Z" fill="#030303"/>
<path d="M18.2422 0.000488281C17.4783 0.000488281 16.827 0.490371 16.5852 1.17236H11.7578V0.586426C11.7578 0.262832 11.4955 0.000488281 11.1719 0.000488281H8.82812C8.50453 0.000488281 8.24219 0.262832 8.24219 0.586426V1.17236H3.41484C3.17297 0.490371 2.52168 0.000488281 1.75781 0.000488281C0.788555 0.000488281 0 0.789043 0 1.7583C0 2.72756 0.788555 3.51611 1.75781 3.51611C2.52168 3.51611 3.17297 3.02584 3.41484 2.34385H5.60676C2.87645 3.91186 1.17188 6.80857 1.17188 9.96143C1.17188 10.285 1.43422 10.5474 1.75781 10.5474C2.08141 10.5474 2.34375 10.285 2.34375 9.96143C2.34375 6.42611 4.8359 3.35127 8.24219 2.54807V2.93018C8.24219 3.25377 8.50453 3.51611 8.82812 3.51611H11.1719C11.4955 3.51611 11.7578 3.25377 11.7578 2.93018V2.54803C15.1641 3.35127 17.6562 6.42611 17.6562 9.96143C17.6562 10.285 17.9186 10.5474 18.2422 10.5474C18.5658 10.5474 18.8281 10.285 18.8281 9.96143C18.8281 6.8126 17.127 3.9142 14.3932 2.34424H16.5852C16.827 3.02623 17.4783 3.51611 18.2422 3.51611C19.2114 3.51611 20 2.72756 20 1.7583C20 0.789043 19.2114 0.000488281 18.2422 0.000488281ZM1.75781 2.34424C1.43473 2.34424 1.17188 2.08139 1.17188 1.7583C1.17188 1.43521 1.43473 1.17236 1.75781 1.17236C2.0809 1.17236 2.34375 1.43521 2.34375 1.7583C2.34375 2.08139 2.0809 2.34424 1.75781 2.34424ZM10.5859 2.34424H9.41406V1.17236H10.5859V2.34424ZM18.2422 2.34424C17.9191 2.34424 17.6562 2.08139 17.6562 1.7583C17.6562 1.43521 17.9191 1.17236 18.2422 1.17236C18.5653 1.17236 18.8281 1.43521 18.8281 1.7583C18.8281 2.08139 18.5653 2.34424 18.2422 2.34424Z" fill="#030303"/>
</g>
<defs>
<clipPath id="clip0_54546_14834">
<rect width="20" height="20" fill="white"/>
</clipPath>
</defs>
</svg>
