<svg width="40" height="40" viewBox="0 0 40 40" fill="none" xmlns="http://www.w3.org/2000/svg">
<path d="M0 12C0 5.37258 5.37258 0 12 0H28C34.6274 0 40 5.37258 40 12V28C40 34.6274 34.6274 40 28 40H12C5.37258 40 0 34.6274 0 28V12Z" fill="#F1EFE3"/>
<path d="M23.3333 13.335C25.1459 13.3451 26.1274 13.4254 26.7678 14.0657C27.5 14.798 27.5 15.9765 27.5 18.3335V23.3335C27.5 25.6905 27.5 26.869 26.7678 27.6013C26.0355 28.3335 24.857 28.3335 22.5 28.3335H17.5C15.143 28.3335 13.9645 28.3335 13.2322 27.6013C12.5 26.869 12.5 25.6905 12.5 23.3335V18.3335C12.5 15.9765 12.5 14.798 13.2322 14.0657C13.8726 13.4254 14.8541 13.3451 16.6667 13.335" stroke="#1924C0" stroke-width="1.25"/>
<path d="M18.75 21.6665H24.1667" stroke="#1924C0" stroke-width="1.25" stroke-linecap="round"/>
<path d="M15.8335 21.6665H16.2502" stroke="#1924C0" stroke-width="1.25" stroke-linecap="round"/>
<path d="M15.8335 18.75H16.2502" stroke="#1924C0" stroke-width="1.25" stroke-linecap="round"/>
<path d="M15.8335 24.5835H16.2502" stroke="#1924C0" stroke-width="1.25" stroke-linecap="round"/>
<path d="M18.75 18.75H24.1667" stroke="#1924C0" stroke-width="1.25" stroke-linecap="round"/>
<path d="M18.75 24.5835H24.1667" stroke="#1924C0" stroke-width="1.25" stroke-linecap="round"/>
<path d="M16.6665 12.9165C16.6665 12.2261 17.2261 11.6665 17.9165 11.6665H22.0832C22.7735 11.6665 23.3332 12.2261 23.3332 12.9165V13.7498C23.3332 14.4402 22.7735 14.9998 22.0832 14.9998H17.9165C17.2261 14.9998 16.6665 14.4402 16.6665 13.7498V12.9165Z" stroke="#1924C0" stroke-width="1.25"/>
</svg>
