<svg width="40" height="40" viewBox="0 0 40 40" fill="none" xmlns="http://www.w3.org/2000/svg">
<path d="M0 12C0 5.37258 5.37258 0 12 0H28C34.6274 0 40 5.37258 40 12V28C40 34.6274 34.6274 40 28 40H12C5.37258 40 0 34.6274 0 28V12Z" fill="#F1EFE3"/>
<path d="M27.4167 26.25L24.9167 23.75C25.8333 22.5833 26.3333 21.1667 26.3333 19.6667C26.3333 16 23.3333 13 19.6667 13C16 13 13 16 13 19.6667C13 23.3333 16 26.3333 19.6667 26.3333C21.1667 26.3333 22.5833 25.8333 23.75 24.9167L26.25 27.4167C26.4167 27.5833 26.6667 27.6667 26.8333 27.6667C27 27.6667 27.25 27.5833 27.4167 27.4167C27.75 27.0833 27.75 26.5833 27.4167 26.25ZM22.1667 20.5H20.5V22.1667C20.5 22.6667 20.1667 23 19.6667 23C19.1667 23 18.8333 22.6667 18.8333 22.1667V20.5H17.1667C16.6667 20.5 16.3333 20.1667 16.3333 19.6667C16.3333 19.1667 16.6667 18.8333 17.1667 18.8333H18.8333V17.1667C18.8333 16.6667 19.1667 16.3333 19.6667 16.3333C20.1667 16.3333 20.5 16.6667 20.5 17.1667V18.8333H22.1667C22.6667 18.8333 23 19.1667 23 19.6667C23 20.1667 22.6667 20.5 22.1667 20.5Z" stroke="#E48225" stroke-width="1.25"/>
</svg>
