<svg width="40" height="40" viewBox="0 0 40 40" fill="none" xmlns="http://www.w3.org/2000/svg">
<path d="M0 12C0 5.37258 5.37258 0 12 0H28C34.6274 0 40 5.37258 40 12V28C40 34.6274 34.6274 40 28 40H12C5.37258 40 0 34.6274 0 28V12Z" fill="#F1EFE3"/>
<path d="M24 11.875C24.8433 11.875 25.5034 11.8672 26.1406 12.0732L26.4131 12.1758L26.4297 12.1826L26.4463 12.1914C27.067 12.5018 27.4982 12.933 27.8086 13.5537L27.8174 13.5703L27.8242 13.5869C28.1348 14.3115 28.125 15.0361 28.125 16V24C28.125 24.9639 28.1348 25.6885 27.8242 26.4131L27.8076 26.4521L27.7861 26.4883C27.5083 26.9513 27.0984 27.4824 26.4463 27.8086L26.4297 27.8174L26.4131 27.8242C25.6885 28.1348 24.9639 28.125 24 28.125H16C15.0361 28.125 14.3115 28.1348 13.5869 27.8242L13.5703 27.8174L13.5537 27.8086C12.933 27.4982 12.5018 27.067 12.1914 26.4463L12.1826 26.4297L12.1758 26.4131C11.8652 25.6885 11.875 24.9639 11.875 24V16C11.875 15.0361 11.8652 14.3115 12.1758 13.5869L12.1826 13.5703L12.1914 13.5537C12.5018 12.933 12.933 12.5018 13.5537 12.1914L13.5703 12.1826L13.5869 12.1758C14.3115 11.8652 15.0361 11.875 16 11.875H24ZM15.0518 14.8018C14.9584 14.8064 14.8954 14.8128 14.8545 14.8193C14.8467 14.8206 14.8405 14.8213 14.8359 14.8223L14.834 14.8232C14.8229 14.8765 14.8092 14.9701 14.8018 15.1328C14.7921 15.3444 14.792 15.6194 14.792 16V24C14.792 24.3806 14.7921 24.6556 14.8018 24.8672C14.8091 25.0289 14.823 25.1224 14.834 25.1758L14.8359 25.1768C14.8406 25.1777 14.8466 25.1794 14.8545 25.1807C14.8954 25.1872 14.9584 25.1936 15.0518 25.1982C15.0995 25.2006 15.1517 25.2008 15.208 25.2021V14.7969C15.1517 14.7982 15.0996 14.7994 15.0518 14.8018ZM20 18.958C19.892 18.958 19.8507 18.992 19.8379 19.0049C19.8249 19.0179 19.792 19.0595 19.792 19.167C19.7921 19.2747 19.8251 19.3163 19.8379 19.3291C19.8509 19.3421 19.8925 19.375 20 19.375H23.333C23.4401 19.375 23.4819 19.3422 23.4951 19.3291C23.508 19.3163 23.5419 19.2747 23.542 19.167C23.542 19.059 23.508 19.0177 23.4951 19.0049C23.4823 18.992 23.441 18.958 23.333 18.958H20ZM20 16.458C19.892 16.458 19.8507 16.492 19.8379 16.5049C19.8249 16.5179 19.792 16.5595 19.792 16.667C19.7921 16.7747 19.8251 16.8163 19.8379 16.8291C19.8509 16.8421 19.8925 16.875 20 16.875H23.333C23.4401 16.875 23.4819 16.8422 23.4951 16.8291C23.508 16.8163 23.5419 16.7747 23.542 16.667C23.542 16.559 23.508 16.5177 23.4951 16.5049C23.4823 16.492 23.441 16.458 23.333 16.458H20Z" stroke="#8245F2" stroke-width="1.25"/>
</svg>
