<svg width="40" height="40" viewBox="0 0 40 40" fill="none" xmlns="http://www.w3.org/2000/svg">
<path d="M0 12C0 5.37258 5.37258 0 12 0H28C34.6274 0 40 5.37258 40 12V28C40 34.6274 34.6274 40 28 40H12C5.37258 40 0 34.6274 0 28V12Z" fill="#F1EFE3"/>
<path d="M20 11.625C21.0998 11.625 22.189 11.8418 23.2051 12.2627C24.2211 12.6836 25.1442 13.3005 25.9219 14.0781C26.6995 14.8558 27.3164 15.7789 27.7373 16.7949C28.1582 17.811 28.375 18.9002 28.375 20C28.375 22.2212 27.4925 24.3513 25.9219 25.9219C24.3513 27.4925 22.2212 28.375 20 28.375C17.7788 28.375 15.6487 27.4925 14.0781 25.9219C12.5075 24.3513 11.625 22.2212 11.625 20C11.625 18.9002 11.8418 17.811 12.2627 16.7949C12.6836 15.7789 13.3005 14.8558 14.0781 14.0781C14.8558 13.3005 15.7789 12.6836 16.7949 12.2627C17.811 11.8418 18.9002 11.625 20 11.625ZM20 12.625C18.044 12.625 16.1682 13.4021 14.7852 14.7852C13.4021 16.1682 12.625 18.044 12.625 20C12.625 21.956 13.4021 23.8318 14.7852 25.2148C16.1682 26.5979 18.044 27.375 20 27.375C21.956 27.375 23.8318 26.5979 25.2148 25.2148C26.5979 23.8318 27.375 21.956 27.375 20C27.375 18.044 26.5979 16.1682 25.2148 14.7852C23.8318 13.4021 21.956 12.625 20 12.625ZM20 15.375C21.2266 15.375 22.4032 15.8621 23.2705 16.7295C24.1379 17.5968 24.625 18.7734 24.625 20C24.625 21.2266 24.1379 22.4032 23.2705 23.2705C22.4032 24.1379 21.2266 24.625 20 24.625C18.7734 24.625 17.5968 24.1379 16.7295 23.2705C15.8621 22.4032 15.375 21.2266 15.375 20C15.375 18.7734 15.8621 17.5968 16.7295 16.7295C17.5968 15.8621 18.7734 15.375 20 15.375ZM20 16.375C19.0386 16.375 18.1163 16.7567 17.4365 17.4365C16.7567 18.1163 16.375 19.0386 16.375 20C16.375 20.9614 16.7567 21.8837 17.4365 22.5635C18.1163 23.2433 19.0386 23.625 20 23.625C20.9614 23.625 21.8837 23.2433 22.5635 22.5635C23.2433 21.8837 23.625 20.9614 23.625 20C23.625 19.0386 23.2433 18.1163 22.5635 17.4365C21.8837 16.7567 20.9614 16.375 20 16.375ZM20 19.125C20.2321 19.125 20.455 19.2168 20.6191 19.3809C20.7832 19.545 20.875 19.7679 20.875 20C20.875 20.2321 20.7832 20.455 20.6191 20.6191C20.455 20.7832 20.2321 20.875 20 20.875C19.7679 20.875 19.545 20.7832 19.3809 20.6191C19.2168 20.455 19.125 20.2321 19.125 20C19.125 19.7679 19.2168 19.545 19.3809 19.3809C19.545 19.2168 19.7679 19.125 20 19.125Z" stroke="#E44400" stroke-width="1.25"/>
</svg>
