<svg width="40" height="40" viewBox="0 0 40 40" fill="none" xmlns="http://www.w3.org/2000/svg">
<path d="M0 12C0 5.37258 5.37258 0 12 0H28C34.6274 0 40 5.37258 40 12V28C40 34.6274 34.6274 40 28 40H12C5.37258 40 0 34.6274 0 28V12Z" fill="#F1EFE3"/>
<path d="M16.6945 13.0482C16.9828 12.3173 18.0172 12.3173 18.3055 13.0482L19.1989 15.3133C19.2869 15.5365 19.4635 15.7131 19.6867 15.8011L21.9518 16.6945C22.6827 16.9828 22.6827 18.0172 21.9518 18.3055L19.6867 19.1989C19.4635 19.2869 19.2869 19.4635 19.1989 19.6867L18.3055 21.9518C18.0172 22.6827 16.9828 22.6827 16.6945 21.9518L15.8011 19.6867C15.7131 19.4635 15.5365 19.2869 15.3133 19.1989L13.0482 18.3055C12.3173 18.0172 12.3173 16.9828 13.0482 16.6945L15.3133 15.8011C15.5365 15.7131 15.7131 15.5365 15.8011 15.3133L16.6945 13.0482Z" stroke="#2BD577" stroke-width="1.25"/>
<path d="M23.7401 21.1241C23.8926 20.7373 24.4401 20.7373 24.5926 21.1241L25.2598 22.8157C25.3064 22.9338 25.3998 23.0273 25.5179 23.0739L27.2096 23.741C27.5964 23.8936 27.5964 24.441 27.2096 24.5936L25.5179 25.2608C25.3998 25.3073 25.3064 25.4008 25.2598 25.5189L24.5926 27.2105C24.4401 27.5974 23.8926 27.5974 23.7401 27.2105L23.0729 25.5189C23.0263 25.4008 22.9328 25.3073 22.8147 25.2608L21.1231 24.5936C20.7363 24.441 20.7363 23.8936 21.1231 23.741L22.8147 23.0739C22.9328 23.0273 23.0263 22.9338 23.0729 22.8157L23.7401 21.1241Z" stroke="#2BD577" stroke-width="1.25"/>
</svg>
