<svg width="40" height="40" viewBox="0 0 40 40" fill="none" xmlns="http://www.w3.org/2000/svg">
<path d="M0 12C0 5.37258 5.37258 0 12 0H28C34.6274 0 40 5.37258 40 12V28C40 34.6274 34.6274 40 28 40H12C5.37258 40 0 34.6274 0 28V12Z" fill="#F1EFE3"/>
<path d="M27.4211 26.6667C26.9236 26.6667 26.5919 26.3333 26.5919 25.8333C26.5919 24.8333 25.5139 23.8333 23.9385 23.5C23.5239 23.4167 23.1922 22.9167 23.358 22.5C23.441 22.0833 23.9385 21.75 24.3531 21.9167C26.7577 22.5 28.3332 24.0833 28.3332 25.8333C28.2502 26.3333 27.9186 26.6667 27.4211 26.6667Z" fill="#BE45F2"/>
<path d="M22.4459 20.8333C21.9484 20.8333 21.6168 20.5 21.6168 20C21.6168 19.5 21.9484 19.1667 22.4459 19.1667C23.8556 19.1667 24.9335 18.0833 24.9335 16.6667C24.9335 15.25 23.8556 14.1667 22.4459 14.1667C21.9484 14.1667 21.6168 13.8333 21.6168 13.3333C21.6168 12.8333 21.9484 12.5 22.4459 12.5C24.7677 12.5 26.5919 14.3333 26.5919 16.6667C26.5919 19 24.7677 20.8333 22.4459 20.8333Z" fill="#BE45F2"/>
<path d="M17.4712 22.292C18.9751 22.2921 20.2943 22.7189 21.2212 23.3828C22.1468 24.0459 22.6498 24.9153 22.6499 25.833C22.6499 25.9419 22.6166 25.9844 22.604 25.9971C22.5914 26.0096 22.5509 26.042 22.4458 26.042H12.4956C12.3902 26.042 12.3499 26.0095 12.3374 25.9971C12.3248 25.9844 12.2915 25.9419 12.2915 25.833C12.2916 24.9153 12.7946 24.0459 13.7202 23.3828C14.6472 22.7188 15.967 22.292 17.4712 22.292ZM17.4712 13.125C19.4126 13.1252 20.9917 14.7082 20.9917 16.667C20.9915 18.6257 19.4125 20.2078 17.4712 20.208C15.5297 20.208 13.9499 18.6258 13.9497 16.667C13.9497 14.708 15.5296 13.125 17.4712 13.125Z" stroke="#BE45F2" stroke-width="1.25"/>
</svg>
