<svg width="40" height="40" viewBox="0 0 40 40" fill="none" xmlns="http://www.w3.org/2000/svg">
<path d="M0 12C0 5.37258 5.37258 0 12 0H28C34.6274 0 40 5.37258 40 12V28C40 34.6274 34.6274 40 28 40H12C5.37258 40 0 34.6274 0 28V12Z" fill="#F1EFE3"/>
<path d="M17.3604 12.5H24.7197C25.2377 12.5 25.5038 12.5112 25.6963 12.6074C25.9194 12.719 26.0808 12.8804 26.1924 13.1035C26.2893 13.2974 26.2998 13.4876 26.2998 14.0801V23.5195C26.2998 24.0878 26.2885 24.2854 26.2021 24.4717C26.0517 24.6961 25.957 24.8228 25.7764 24.9131L25.5 25.0508V25.9199C25.5 26.5124 25.4895 26.7026 25.3926 26.8965C25.281 27.1196 25.1196 27.281 24.8965 27.3926C24.7026 27.4895 24.5124 27.5 23.9199 27.5H15.4404C14.9166 27.5 14.5 27.0834 14.5 26.5596V15.3604C14.5 14.3844 14.507 13.9354 14.6914 13.4941C14.8807 13.1193 15.1193 12.8807 15.4941 12.6914C15.9354 12.507 16.3844 12.5 17.3604 12.5ZM16.5596 25.0996C15.8477 25.0998 15.2287 25.5848 15.1064 26.3174L15.0098 26.9004H24.9004V25.0996H16.5596Z" stroke="#D13435"/>
</svg>
