<svg width="40" height="40" viewBox="0 0 40 40" fill="none" xmlns="http://www.w3.org/2000/svg">
<path d="M0 12C0 5.37258 5.37258 0 12 0H28C34.6274 0 40 5.37258 40 12V28C40 34.6274 34.6274 40 28 40H12C5.37258 40 0 34.6274 0 28V12Z" fill="#F1EFE3"/>
<path d="M20 23.124C21.982 23.124 23.7323 23.6407 24.9678 24.458C26.2033 25.2754 26.8749 26.3519 26.875 27.499C26.875 27.6061 26.8422 27.6479 26.8291 27.6611C26.8163 27.674 26.7747 27.7079 26.667 27.708H13.333C13.2253 27.7079 13.1837 27.674 13.1709 27.6611C13.1578 27.6479 13.125 27.6061 13.125 27.499C13.1251 26.3519 13.7967 25.2754 15.0322 24.458C16.2677 23.6407 18.018 23.124 20 23.124ZM20 12.291C22.4048 12.291 24.375 14.2612 24.375 16.666C24.375 19.0708 22.4048 21.041 20 21.041C17.5952 21.041 15.625 19.0708 15.625 16.666C15.625 14.2612 17.5952 12.291 20 12.291Z" stroke="#5FCA51" stroke-width="1.25"/>
</svg>
