<svg width="40" height="40" viewBox="0 0 40 40" fill="none" xmlns="http://www.w3.org/2000/svg">
<path d="M0 12C0 5.37258 5.37258 0 12 0H28C34.6274 0 40 5.37258 40 12V28C40 34.6274 34.6274 40 28 40H12C5.37258 40 0 34.6274 0 28V12Z" fill="#F1EFE3"/>
<path d="M11.6665 19.9998C11.6665 16.0715 11.6665 14.1073 12.8869 12.8869C14.1073 11.6665 16.0715 11.6665 19.9998 11.6665C23.9282 11.6665 25.8924 11.6665 27.1128 12.8869C28.3332 14.1073 28.3332 16.0715 28.3332 19.9998C28.3332 23.9282 28.3332 25.8924 27.1128 27.1128C25.8924 28.3332 23.9282 28.3332 19.9998 28.3332C16.0715 28.3332 14.1073 28.3332 12.8869 27.1128C11.6665 25.8924 11.6665 23.9282 11.6665 19.9998Z" stroke="#7C923B" stroke-width="1.25"/>
<path d="M20.7945 18.7417L21.1127 19.2796L21.1127 19.2796L20.7945 18.7417ZM17.8125 17.396C17.8125 17.7412 18.0923 18.021 18.4375 18.021C18.7827 18.021 19.0625 17.7412 19.0625 17.396H18.4375H17.8125ZM19.375 20.8335C19.375 21.1787 19.6548 21.4585 20 21.4585C20.3452 21.4585 20.625 21.1787 20.625 20.8335H20H19.375ZM21.5625 17.396H20.9375C20.9375 17.739 20.7537 18.0397 20.4762 18.2038L20.7945 18.7417L21.1127 19.2796C21.7547 18.8998 22.1875 18.1988 22.1875 17.396H21.5625ZM18.4375 17.396H19.0625C19.0625 16.8782 19.4822 16.4585 20 16.4585V15.8335V15.2085C18.7919 15.2085 17.8125 16.1879 17.8125 17.396H18.4375ZM20 15.8335V16.4585C20.5178 16.4585 20.9375 16.8782 20.9375 17.396H21.5625H22.1875C22.1875 16.1879 21.2081 15.2085 20 15.2085V15.8335ZM20 19.7918H19.375V20.8335H20H20.625V19.7918H20ZM20.7945 18.7417L20.4762 18.2038C20.2441 18.3412 19.9822 18.5302 19.7722 18.7777C19.5596 19.0282 19.375 19.3703 19.375 19.7918H20H20.625C20.625 19.7532 20.6396 19.6874 20.7252 19.5865C20.8134 19.4826 20.9488 19.3766 21.1127 19.2796L20.7945 18.7417Z" fill="#7C923B"/>
<circle cx="19.9998" cy="23.3333" r="0.833333" stroke="#7C923B" stroke-width="1.25"/>
</svg>
