<svg width="40" height="40" viewBox="0 0 40 40" fill="none" xmlns="http://www.w3.org/2000/svg">
<path d="M0 12C0 5.37258 5.37258 0 12 0H28C34.6274 0 40 5.37258 40 12V28C40 34.6274 34.6274 40 28 40H12C5.37258 40 0 34.6274 0 28V12Z" fill="#F1EFE3"/>
<path d="M20.6484 13.9922C21.0336 13.898 21.3164 14.0091 21.6211 14.2988C21.7247 14.4262 21.7908 14.5685 21.8291 14.8457C21.8739 15.1697 21.875 15.6071 21.875 16.3184V23.5713C21.875 24.2818 21.8732 24.7407 21.8281 25.0762C21.7858 25.3911 21.7161 25.5003 21.6465 25.5684L21.6211 25.5928L21.5996 25.6201C21.3538 25.9205 21.1011 26.042 20.833 26.042H20.6348C20.4714 26.0175 20.3197 25.9496 20.1074 25.7568C19.8621 25.5341 19.5832 25.1916 19.1582 24.6514L19.1572 24.6504L17.7402 22.8574L17.7158 22.8262L17.7051 22.8164C17.7219 22.8368 17.7325 22.8544 17.6826 22.7812C17.6593 22.7471 17.596 22.6558 17.4854 22.5801C17.3581 22.4931 17.2165 22.457 17.083 22.457H15.667C14.9692 22.457 14.6801 22.4486 14.3945 22.3369L14.3779 22.3301L14.3604 22.3252L14.1543 22.2441C13.6964 22.0345 13.349 21.6564 13.1836 21.1914C13.1301 20.9622 13.125 20.648 13.125 19.9854C13.125 19.3013 13.1339 19.0267 13.2451 18.7549L13.252 18.7383L13.2578 18.7207C13.4404 18.1851 13.8647 17.7622 14.4199 17.5732C14.6604 17.5187 14.9875 17.5137 15.667 17.5137H17.3711L17.5586 17.2949C17.819 16.9907 18.0779 16.6644 18.3311 16.3418L19.0684 15.4092C19.5313 14.8742 19.8324 14.527 20.0869 14.2959C20.329 14.0761 20.4673 14.0206 20.5869 14.0039L20.6182 14L20.6484 13.9922ZM25.1865 16.9287C25.277 16.8403 25.3891 16.8403 25.4795 16.9287C25.957 17.3956 26.2981 17.8086 26.5 18.335C26.7349 18.9476 26.875 19.5202 26.875 20.0674C26.8749 20.6144 26.7349 21.1864 26.5 21.7988C26.2431 22.4686 26.0878 22.8018 25.6963 23.0332C25.6068 23.086 25.5657 23.0956 25.5449 23.0996C25.5097 23.1065 25.4694 23.1084 25.333 23.1084C25.2808 23.1084 25.2632 23.1011 25.2598 23.0996C25.2546 23.0974 25.2324 23.0878 25.1865 23.043V23.042C25.1351 22.9915 25.125 22.947 25.125 22.9189C25.125 22.8908 25.1347 22.8456 25.1865 22.7949C25.5593 22.4304 25.8694 22.0356 26.0781 21.5254C26.276 21.0416 26.375 20.5538 26.375 19.9854C26.375 19.5058 26.2787 18.9357 26.0781 18.4453C25.8694 17.9351 25.5593 17.5403 25.1865 17.1758C25.1347 17.1251 25.125 17.0798 25.125 17.0518C25.125 17.0237 25.1351 16.9791 25.1865 16.9287Z" stroke="#5D76BA" stroke-width="1.25"/>
</svg>
