<svg width="40" height="40" viewBox="0 0 40 40" fill="none" xmlns="http://www.w3.org/2000/svg">
<path d="M0 12C0 5.37258 5.37258 0 12 0H28C34.6274 0 40 5.37258 40 12V28C40 34.6274 34.6274 40 28 40H12C5.37258 40 0 34.6274 0 28V12Z" fill="#F1EFE3"/>
<g clip-path="url(#clip0_54546_22223)">
<path d="M24.1665 11.1665C24.5301 11.1665 24.8723 11.2903 25.1245 11.5425C25.3764 11.7946 25.4994 12.1362 25.4995 12.4995V12.8354C26.0752 12.8443 26.5673 12.8913 27.0571 13.1362C27.6085 13.412 28.1177 13.8043 28.4331 14.4185H28.4341C28.8449 15.1375 28.8335 15.7799 28.8335 16.8335V24.8335C28.8335 25.8868 28.8447 26.5287 28.4341 27.2476L28.4331 27.2466C28.1177 27.8614 27.6089 28.2548 27.0571 28.5308L27.0298 28.5425C26.3321 28.8414 25.6317 28.8335 24.4995 28.8335H15.4995C14.3674 28.8335 13.6669 28.8415 12.9692 28.5425L12.9556 28.5366L12.9429 28.5308C12.3839 28.2513 11.8666 27.8519 11.5522 27.2231L11.5532 27.2222C11.1567 26.5132 11.1665 25.8748 11.1665 24.8335V16.8335C11.1665 15.7798 11.155 15.1375 11.5659 14.4185C11.8814 13.8041 12.3913 13.412 12.9429 13.1362C13.4325 12.8914 13.9241 12.8443 14.4995 12.8354V12.4995C14.4996 12.1361 14.6235 11.7946 14.8755 11.5425C15.1277 11.2903 15.4699 11.1665 15.8335 11.1665C16.197 11.1666 16.5384 11.2903 16.7905 11.5425C17.0427 11.7946 17.1664 12.136 17.1665 12.4995V12.8335H22.8335V12.4995C22.8336 12.1362 22.9566 11.7946 23.2085 11.5425C23.4607 11.2903 23.8029 11.1665 24.1665 11.1665ZM16.2495 19.4995C16.1135 19.4996 16.039 19.5432 15.9995 19.5825C15.9601 19.622 15.9165 19.6971 15.9165 19.8335C15.9166 19.9697 15.9601 20.0441 15.9995 20.0835C16.0389 20.1229 16.1133 20.1664 16.2495 20.1665H23.7495C23.8859 20.1665 23.961 20.1229 24.0005 20.0835C24.0399 20.044 24.0834 19.9695 24.0835 19.8335C24.0835 19.6971 24.0399 19.622 24.0005 19.5825C23.961 19.5431 23.8859 19.4995 23.7495 19.4995H16.2495ZM15.4995 15.4995C15.0796 15.4995 14.7361 15.5003 14.4663 15.5103C14.2278 15.5191 14.0918 15.5371 14.0249 15.5513C13.9655 15.5911 13.9004 15.6569 13.8687 15.7144C13.867 15.721 13.8648 15.7332 13.8618 15.7515C13.8543 15.7977 13.848 15.8637 13.8433 15.9536C13.8399 16.0178 13.8388 16.0887 13.8374 16.1665H26.1626C26.1612 16.0887 26.1601 16.0178 26.1567 15.9536C26.152 15.8637 26.1457 15.7977 26.1382 15.7515C26.1352 15.7331 26.132 15.721 26.1304 15.7144C26.0985 15.6568 26.0336 15.591 25.9741 15.5513C25.907 15.5371 25.7713 15.5191 25.5337 15.5103C25.2638 15.5003 24.9196 15.4995 24.4995 15.4995H15.4995Z" stroke="#5D92BA"/>
<path d="M20.1914 23.3721C20.2702 23.5718 20.4282 23.7298 20.6279 23.8086L21.1123 24L20.6279 24.1914C20.4531 24.2604 20.3094 24.3894 20.2236 24.5547L20.1914 24.6279L20 25.1123L19.8086 24.6279L19.7764 24.5547C19.6906 24.3894 19.5469 24.2604 19.3721 24.1914L18.8867 24L19.3721 23.8086C19.5718 23.7298 19.7298 23.5718 19.8086 23.3721L20 22.8867L20.1914 23.3721Z" stroke="#5D92BA"/>
</g>
<defs>
<clipPath id="clip0_54546_22223">
<rect width="20" height="20" fill="white" transform="translate(10 10)"/>
</clipPath>
</defs>
</svg>
