<svg width="40" height="40" viewBox="0 0 40 40" fill="none" xmlns="http://www.w3.org/2000/svg">
<path d="M0 12C0 5.37258 5.37258 0 12 0H28C34.6274 0 40 5.37258 40 12V28C40 34.6274 34.6274 40 28 40H12C5.37258 40 0 34.6274 0 28V12Z" fill="#F1EFE3"/>
<path d="M18.4897 15.8149C19.4803 15.5592 20.5197 15.5592 21.5103 15.8149L22.2534 16.0073L22.9272 16.3804C23.871 16.9031 24.6579 17.6686 25.2056 18.5981C25.7533 19.5278 26.0417 20.5875 26.0415 21.6665V25.8335C26.0414 26.3306 25.8441 26.8072 25.4927 27.1587C25.141 27.5103 24.6638 27.7085 24.1665 27.7085H15.8335C15.3362 27.7085 14.859 27.5103 14.5073 27.1587C14.156 26.8072 13.9586 26.3305 13.9585 25.8335V21.6665C13.9585 19.3926 15.2137 17.4103 17.0728 16.3794L17.7417 16.0073L18.4897 15.8149ZM17.5005 22.7085C17.1138 22.7085 16.7427 22.8619 16.4692 23.1353C16.1957 23.4087 16.0415 23.7797 16.0415 24.1665C16.0415 24.5533 16.1957 24.9243 16.4692 25.1978C16.7427 25.4711 17.1138 25.6245 17.5005 25.6245H22.5005C22.8871 25.6244 23.2583 25.4712 23.5317 25.1978C23.8051 24.9243 23.9585 24.5532 23.9585 24.1665C23.9585 23.7798 23.8051 23.4087 23.5317 23.1353C23.2583 22.8618 22.8871 22.7086 22.5005 22.7085H17.5005ZM19.1665 12.2915H20.8335C21.3308 12.2915 21.808 12.4887 22.1597 12.8403C22.5113 13.192 22.7085 13.6692 22.7085 14.1665V15.2085H22.2915V14.1665C22.2915 13.7797 22.1382 13.4087 21.8647 13.1353C21.5913 12.8618 21.2203 12.7085 20.8335 12.7085H19.1665C18.7798 12.7086 18.4087 12.8618 18.1353 13.1353C17.8619 13.4087 17.7085 13.7798 17.7085 14.1665V15.2085H17.2915V14.1665C17.2915 13.6692 17.4897 13.192 17.8413 12.8403C18.1928 12.489 18.6695 12.2916 19.1665 12.2915Z" stroke="#45DCE7" stroke-width="1.25"/>
</svg>
