<svg width="40" height="40" viewBox="0 0 40 40" fill="none" xmlns="http://www.w3.org/2000/svg">
<path d="M0 12C0 5.37258 5.37258 0 12 0H28C34.6274 0 40 5.37258 40 12V28C40 34.6274 34.6274 40 28 40H12C5.37258 40 0 34.6274 0 28V12Z" fill="#F1EFE3"/>
<path d="M13.3335 16.666C13.3335 14.309 13.3335 13.1305 14.0657 12.3982C14.798 11.666 15.9765 11.666 18.3335 11.666H21.6668C24.0239 11.666 25.2024 11.666 25.9346 12.3982C26.6668 13.1305 26.6668 14.309 26.6668 16.666V23.3327C26.6668 25.6897 26.6668 26.8682 25.9346 27.6004C25.2024 28.3327 24.0239 28.3327 21.6668 28.3327H18.3335C15.9765 28.3327 14.798 28.3327 14.0657 27.6004C13.3335 26.8682 13.3335 25.6897 13.3335 23.3327V16.666Z" stroke="#5D92BA" stroke-width="1.25"/>
<path d="M27.2953 23.334H16.5816C15.8067 23.334 15.4192 23.334 15.1013 23.4192C14.2385 23.6503 14.2312 26.6373 14 27.5" stroke="#5D92BA" stroke-width="1.25"/>
<path d="M16.6665 15.834H23.3332" stroke="#5D92BA" stroke-width="1.25"/>
<path d="M16.6665 18.75H20.8332" stroke="#5D92BA" stroke-width="1.25"/>
<path d="M20.8333 23.334V26.2764C20.8333 26.5061 20.8333 26.6209 20.7543 26.6673C20.6752 26.7137 20.5671 26.6624 20.3509 26.5597L19.3157 26.0679C19.2426 26.0332 19.206 26.0158 19.1667 26.0158C19.1273 26.0158 19.0907 26.0332 19.0176 26.0679L17.9824 26.5597C17.7662 26.6624 17.6581 26.7137 17.579 26.6673C17.5 26.6209 17.5 26.5061 17.5 26.2764V23.709" stroke="#5D92BA" stroke-width="1.25"/>
</svg>
