<svg width="40" height="40" viewBox="0 0 40 40" fill="none" xmlns="http://www.w3.org/2000/svg">
<path d="M0 12C0 5.37258 5.37258 0 12 0H28C34.6274 0 40 5.37258 40 12V28C40 34.6274 34.6274 40 28 40H12C5.37258 40 0 34.6274 0 28V12Z" fill="#F1EFE3"/>
<path d="M19.5835 13.125C21.2629 13.1252 22.6773 14.3219 23.0327 15.9658L23.1392 16.458H23.644C24.1673 16.458 24.475 16.534 24.689 16.6416L24.7124 16.6533L24.7368 16.6631C25.0327 16.7821 25.3362 17.0287 25.5103 17.3203L25.5317 17.3564L25.5581 17.3887C25.7564 17.638 25.8373 17.9486 25.9224 18.8896L25.9233 18.9111L25.9272 18.9316L26.6714 23.5869V23.5879C26.7593 24.2069 26.8347 24.6168 26.8638 24.9775C26.8912 25.3176 26.8657 25.5138 26.7983 25.6719L26.7827 25.708L26.772 25.7461C26.6677 26.1128 26.4054 26.4115 25.9976 26.6943C25.5776 26.8622 25.1323 26.875 23.8921 26.875H15.2739C14.068 26.875 13.5971 26.8569 13.1958 26.6318C12.7718 26.3433 12.5006 26.0373 12.394 25.6621L12.3833 25.625L12.3687 25.5879L12.3257 25.4609C12.2912 25.3232 12.2817 25.1487 12.3022 24.8936C12.3312 24.5349 12.4054 24.1277 12.4927 23.5146L12.4937 23.5156L13.2368 18.8613C13.3974 17.9735 13.4702 17.6333 13.6538 17.248C13.8418 17.0147 14.1457 16.7775 14.4302 16.6631L14.4536 16.6533L14.4771 16.6416C14.6911 16.534 14.9995 16.458 15.5229 16.458H16.0269L16.1333 15.9658C16.4887 14.3218 17.904 13.125 19.5835 13.125ZM19.6665 13.542C18.3444 13.542 17.0932 14.3584 16.6694 15.6367L16.397 16.458H22.8521L22.5796 15.6367C22.1634 14.3811 21.013 13.5422 19.6665 13.542Z" stroke="#5DBAB2" stroke-width="1.25"/>
</svg>
