<svg width="40" height="40" viewBox="0 0 40 40" fill="none" xmlns="http://www.w3.org/2000/svg">
<path d="M0 12C0 5.37258 5.37258 0 12 0H28C34.6274 0 40 5.37258 40 12V28C40 34.6274 34.6274 40 28 40H12C5.37258 40 0 34.6274 0 28V12Z" fill="#F1EFE3"/>
<path d="M28.3332 19.9993C28.3332 24.6017 24.6022 28.3327 19.9998 28.3327C15.3975 28.3327 11.6665 24.6017 11.6665 19.9993C11.6665 15.397 15.3975 11.666 19.9998 11.666C24.6022 11.666 28.3332 15.397 28.3332 19.9993Z" stroke="#1E3C54" stroke-width="1.25"/>
<path d="M11.6665 20L14.1665 20" stroke="#1E3C54" stroke-width="1.25"/>
<path d="M25.8335 20L28.3335 20" stroke="#1E3C54" stroke-width="1.25"/>
<path d="M20 28.334L20 25.834" stroke="#1E3C54" stroke-width="1.25"/>
<path d="M20 14.166L20 11.666" stroke="#1E3C54" stroke-width="1.25"/>
<path d="M18.3335 20H20.0002H21.6668" stroke="#1E3C54" stroke-width="1.25" stroke-linecap="round" stroke-linejoin="round"/>
<path d="M20 21.666L20 19.9993L20 18.3327" stroke="#1E3C54" stroke-width="1.25" stroke-linecap="round" stroke-linejoin="round"/>
</svg>
