<svg width="40" height="40" viewBox="0 0 40 40" fill="none" xmlns="http://www.w3.org/2000/svg">
<path d="M0 12C0 5.37258 5.37258 0 12 0H28C34.6274 0 40 5.37258 40 12V28C40 34.6274 34.6274 40 28 40H12C5.37258 40 0 34.6274 0 28V12Z" fill="#F1EFE3"/>
<path d="M12.5 18.3327C12.5 15.19 12.5 13.6186 13.4763 12.6423C14.4526 11.666 16.024 11.666 19.1667 11.666H20.8333C23.976 11.666 25.5474 11.666 26.5237 12.6423C27.5 13.6186 27.5 15.19 27.5 18.3327V21.666C27.5 24.8087 27.5 26.3801 26.5237 27.3564C25.5474 28.3327 23.976 28.3327 20.8333 28.3327H19.1667C16.024 28.3327 14.4526 28.3327 13.4763 27.3564C12.5 26.3801 12.5 24.8087 12.5 21.666V18.3327Z" stroke="#FF6738" stroke-width="1.25"/>
<path d="M16.6665 18.334H23.3332" stroke="#FF6738" stroke-width="1.25"/>
<path d="M16.6665 21.666H20.8332" stroke="#FF6738" stroke-width="1.25"/>
</svg>
