<svg width="40" height="40" viewBox="0 0 40 40" fill="none" xmlns="http://www.w3.org/2000/svg">
<path d="M0 12C0 5.37258 5.37258 0 12 0H28C34.6274 0 40 5.37258 40 12V28C40 34.6274 34.6274 40 28 40H12C5.37258 40 0 34.6274 0 28V12Z" fill="#F1EFE3"/>
<path d="M22.0833 26.2493H17.9167M22.0833 26.2493C22.0833 25.6547 22.0833 25.3574 22.1151 25.1602C22.2174 24.524 22.2353 24.4839 22.641 23.9833C22.7668 23.8281 23.2338 23.4099 24.1677 22.5736C25.4457 21.4293 26.25 19.7666 26.25 17.916C26.25 14.4642 23.4518 11.666 20 11.666C16.5482 11.666 13.75 14.4642 13.75 17.916C13.75 19.7666 14.5543 21.4293 15.8323 22.5736C16.7662 23.4099 17.2332 23.8281 17.359 23.9833C17.7647 24.4839 17.7826 24.524 17.8849 25.1602C17.9167 25.3574 17.9167 25.6547 17.9167 26.2493M22.0833 26.2493C22.0833 27.0282 22.0833 27.4176 21.9159 27.7077C21.8062 27.8977 21.6484 28.0555 21.4583 28.1652C21.1683 28.3327 20.7788 28.3327 20 28.3327C19.2212 28.3327 18.8317 28.3327 18.5417 28.1652C18.3516 28.0555 18.1938 27.8977 18.0841 27.7077C17.9167 27.4176 17.9167 27.0282 17.9167 26.2493" stroke="#F2A745" stroke-width="1.25"/>
<path d="M20 24.1667V22.5" stroke="#F2A745" stroke-width="1.25" stroke-linecap="round"/>
<path d="M21.4435 21.666C21.1554 22.1642 20.6168 22.4993 19.9998 22.4993C19.3829 22.4993 18.8443 22.1642 18.5562 21.666" stroke="#F2A745" stroke-width="1.25" stroke-linecap="round"/>
</svg>
