<svg width="40" height="40" viewBox="0 0 40 40" fill="none" xmlns="http://www.w3.org/2000/svg">
<path d="M0 12C0 5.37258 5.37258 0 12 0H28C34.6274 0 40 5.37258 40 12V28C40 34.6274 34.6274 40 28 40H12C5.37258 40 0 34.6274 0 28V12Z" fill="#F1EFE3"/>
<g clip-path="url(#clip0_54546_10786)">
<path d="M24.1665 11.166C24.5301 11.166 24.8723 11.2898 25.1245 11.542C25.3764 11.7941 25.4994 12.1357 25.4995 12.499V12.835C26.0752 12.8438 26.5673 12.8908 27.0571 13.1357C27.6085 13.4115 28.1177 13.8038 28.4331 14.418H28.4341C28.8449 15.137 28.8335 15.7794 28.8335 16.833V24.833C28.8335 25.8863 28.8447 26.5282 28.4341 27.2471L28.4331 27.2461C28.1177 27.8609 27.6089 28.2544 27.0571 28.5303L27.0298 28.542C26.3321 28.8409 25.6317 28.833 24.4995 28.833H15.4995C14.3674 28.833 13.6669 28.841 12.9692 28.542L12.9556 28.5361L12.9429 28.5303C12.3839 28.2508 11.8666 27.8514 11.5522 27.2227L11.5532 27.2217C11.1567 26.5127 11.1665 25.8743 11.1665 24.833V16.833C11.1665 15.7794 11.155 15.137 11.5659 14.418C11.8814 13.8036 12.3913 13.4115 12.9429 13.1357C13.4325 12.8909 13.9241 12.8439 14.4995 12.835V12.499C14.4996 12.1356 14.6235 11.7941 14.8755 11.542C15.1277 11.2898 15.4699 11.166 15.8335 11.166C16.197 11.1661 16.5384 11.2898 16.7905 11.542C17.0427 11.7941 17.1664 12.1355 17.1665 12.499V12.833H22.8335V12.499C22.8336 12.1357 22.9566 11.7941 23.2085 11.542C23.4607 11.2898 23.8029 11.166 24.1665 11.166ZM16.2495 20.499C16.1135 20.4991 16.039 20.5427 15.9995 20.582C15.9601 20.6215 15.9165 20.6966 15.9165 20.833C15.9166 20.9692 15.9601 21.0436 15.9995 21.083C16.0389 21.1224 16.1133 21.1659 16.2495 21.166H23.7495C23.8859 21.166 23.961 21.1225 24.0005 21.083C24.0399 21.0436 24.0834 20.969 24.0835 20.833C24.0835 20.6966 24.0399 20.6215 24.0005 20.582C23.961 20.5426 23.8859 20.499 23.7495 20.499H16.2495ZM15.4995 15.499C15.0796 15.499 14.7361 15.4998 14.4663 15.5098C14.2278 15.5186 14.0918 15.5366 14.0249 15.5508C13.9655 15.5906 13.9004 15.6564 13.8687 15.7139C13.867 15.7205 13.8648 15.7327 13.8618 15.751C13.8543 15.7972 13.848 15.8632 13.8433 15.9531C13.8399 16.0173 13.8388 16.0882 13.8374 16.166H26.1626C26.1612 16.0882 26.1601 16.0173 26.1567 15.9531C26.152 15.8633 26.1457 15.7972 26.1382 15.751C26.1352 15.7326 26.132 15.7205 26.1304 15.7139C26.0985 15.6564 26.0336 15.5905 25.9741 15.5508C25.907 15.5366 25.7713 15.5186 25.5337 15.5098C25.2638 15.4998 24.9196 15.499 24.4995 15.499H15.4995Z" stroke="#3765AF"/>
</g>
<defs>
<clipPath id="clip0_54546_10786">
<rect width="20" height="20" fill="white" transform="translate(10 10)"/>
</clipPath>
</defs>
</svg>
