<svg width="40" height="40" viewBox="0 0 40 40" fill="none" xmlns="http://www.w3.org/2000/svg">
<path d="M0 12C0 5.37258 5.37258 0 12 0H28C34.6274 0 40 5.37258 40 12V28C40 34.6274 34.6274 40 28 40H12C5.37258 40 0 34.6274 0 28V12Z" fill="#F1EFE3"/>
<path d="M13.2129 13.4189C14.5017 12.4338 15.6772 12.207 16.7715 12.3164C17.9024 12.4295 18.9787 12.9032 20.0713 13.4072L20.082 13.4111C21.0981 13.858 22.129 14.3226 23.1807 14.4395C24.276 14.5611 25.3625 14.3078 26.5137 13.4434C26.5744 13.4029 26.6313 13.382 26.6768 13.376C26.7071 13.372 26.7368 13.3756 26.7715 13.3877C26.808 13.4172 26.832 13.4433 26.8457 13.4668C26.8618 13.4944 26.875 13.5311 26.875 13.5889V23.085C26.875 23.142 26.8655 23.1747 26.8584 23.1904C26.8551 23.1976 26.8516 23.2033 26.8477 23.208C26.8436 23.2128 26.8355 23.2213 26.8203 23.2314L26.8027 23.2422L26.7871 23.2549C25.4982 24.2401 24.3229 24.4678 23.2285 24.3584C22.0977 24.2453 21.0213 23.7716 19.9287 23.2676L19.9268 23.2666L19.1895 22.9346C18.4521 22.6143 17.7158 22.3422 16.9727 22.2373C15.9394 22.0915 14.9116 22.2693 13.8252 22.9775L13.542 23.1631V27.5C13.5419 27.6064 13.5092 27.6479 13.4961 27.6611C13.4833 27.674 13.4411 27.708 13.333 27.708C13.2252 27.7079 13.1837 27.6739 13.1709 27.6611C13.1579 27.648 13.1251 27.6068 13.125 27.5V13.5889C13.125 13.5317 13.1345 13.499 13.1416 13.4834C13.1449 13.4762 13.1483 13.4706 13.1523 13.4658C13.1564 13.4611 13.1647 13.4534 13.1797 13.4434L13.1973 13.4316L13.2129 13.4189Z" stroke="#F245CF" stroke-width="1.25"/>
</svg>
