<svg width="36" height="36" viewBox="0 0 36 36" fill="none" xmlns="http://www.w3.org/2000/svg">
<path d="M0 12C0 5.37258 5.37258 0 12 0H24C30.6274 0 36 5.37258 36 12V24C36 30.6274 30.6274 36 24 36H12C5.37258 36 0 30.6274 0 24V12Z" fill="#3B6FF5"/>
<path d="M23.1211 12.2217L23.5654 11.7821L23.5654 11.7821L23.1211 12.2217ZM24 20.7275H24.625H24ZM23.5107 24.2744L23.9343 24.734L23.9345 24.7338L23.5107 24.2744ZM22.6689 24.6611L22.74 25.2821L22.7401 25.2821L22.6689 24.6611ZM19.7051 22.6973L19.291 23.1654H19.291L19.7051 22.6973ZM18.293 21.7168L18.4164 21.1041L18.4163 21.1041L18.293 21.7168ZM17.707 21.7168L17.5837 21.1041L17.5836 21.1041L17.707 21.7168ZM16.2949 22.6973L16.709 23.1654V23.1654L16.2949 22.6973ZM13.3311 24.6611L13.2599 25.2821L13.26 25.2821L13.3311 24.6611ZM12.4893 24.2744L12.0655 24.7338L12.0657 24.734L12.4893 24.2744ZM12 20.7275H11.375H12ZM12.8789 12.2217L12.4346 11.7821L12.4346 11.7821L12.8789 12.2217ZM18 11.333V11.958C19.432 11.958 20.4424 11.9595 21.2074 12.0636C21.9537 12.1651 22.3726 12.3538 22.6768 12.6612L23.1211 12.2217L23.5654 11.7821C22.9909 11.2014 22.2634 10.9457 21.376 10.825C20.5072 10.7068 19.3964 10.708 18 10.708V11.333ZM23.1211 12.2217L22.6768 12.6612C22.9819 12.9696 23.1697 13.3957 23.2705 14.1534C23.3736 14.9284 23.375 15.9514 23.375 17.3984H24H24.625C24.625 15.9864 24.6262 14.8651 24.5096 13.9885C24.3906 13.0947 24.139 12.3619 23.5654 11.7821L23.1211 12.2217ZM24 17.3984H23.375V20.7275H24H24.625V17.3984H24ZM24 20.7275H23.375C23.375 21.7744 23.3741 22.5081 23.3173 23.0393C23.2588 23.5872 23.1531 23.754 23.087 23.815L23.5107 24.2744L23.9345 24.7338C24.3574 24.3437 24.4964 23.769 24.5602 23.1721C24.6258 22.5586 24.625 21.7445 24.625 20.7275H24ZM23.5107 24.2744L23.0872 23.8148C22.9502 23.941 22.7786 24.0195 22.5978 24.0402L22.6689 24.6611L22.7401 25.2821C23.1868 25.2309 23.6045 25.0379 23.9343 24.734L23.5107 24.2744ZM22.6689 24.6611L22.5979 24.0402C22.5138 24.0498 22.324 24.0231 21.8778 23.7072C21.4455 23.401 20.899 22.9189 20.1192 22.2291L19.7051 22.6973L19.291 23.1654C20.0481 23.8351 20.6545 24.3725 21.1554 24.7273C21.6424 25.0722 22.1661 25.3478 22.74 25.2821L22.6689 24.6611ZM19.7051 22.6973L20.1192 22.2291C19.7882 21.9364 19.5084 21.6881 19.2605 21.5069C19.0044 21.3196 18.7368 21.1686 18.4164 21.1041L18.293 21.7168L18.1696 22.3295C18.2422 22.3441 18.3409 22.3829 18.5228 22.5159C18.7128 22.6549 18.9426 22.8572 19.291 23.1654L19.7051 22.6973ZM18.293 21.7168L18.4163 21.1041C18.1415 21.0488 17.8585 21.0488 17.5837 21.1041L17.707 21.7168L17.8304 22.3295C17.9424 22.307 18.0576 22.307 18.1696 22.3295L18.293 21.7168ZM17.707 21.7168L17.5836 21.1041C17.2632 21.1686 16.9956 21.3196 16.7395 21.5069C16.4916 21.6881 16.2118 21.9364 15.8808 22.2291L16.2949 22.6973L16.709 23.1654C17.0574 22.8572 17.2872 22.6549 17.4772 22.5159C17.6591 22.3829 17.7578 22.3441 17.8304 22.3295L17.707 21.7168ZM16.2949 22.6973L15.8808 22.2291C15.101 22.9189 14.5545 23.401 14.1222 23.7072C13.676 24.0231 13.4862 24.0498 13.4021 24.0402L13.3311 24.6611L13.26 25.2821C13.8339 25.3478 14.3576 25.0722 14.8446 24.7273C15.3455 24.3725 15.9519 23.8351 16.709 23.1654L16.2949 22.6973ZM13.3311 24.6611L13.4022 24.0402C13.2214 24.0195 13.0498 23.941 12.9128 23.8148L12.4893 24.2744L12.0657 24.734C12.3955 25.0379 12.8132 25.2309 13.2599 25.2821L13.3311 24.6611ZM12.4893 24.2744L12.913 23.815C12.8469 23.754 12.7412 23.5872 12.6827 23.0393C12.6259 22.5081 12.625 21.7744 12.625 20.7275H12H11.375C11.375 21.7445 11.3742 22.5586 11.4398 23.1721C11.5036 23.769 11.6426 24.3437 12.0655 24.7338L12.4893 24.2744ZM12 20.7275H12.625V17.3984H12H11.375V20.7275H12ZM12 17.3984H12.625C12.625 15.9514 12.6264 14.9284 12.7295 14.1534C12.8303 13.3957 13.0181 12.9696 13.3232 12.6612L12.8789 12.2217L12.4346 11.7821C11.861 12.3619 11.6094 13.0947 11.4904 13.9885C11.3738 14.8651 11.375 15.9864 11.375 17.3984H12ZM12.8789 12.2217L13.3232 12.6612C13.6274 12.3538 14.0463 12.1651 14.7926 12.0636C15.5576 11.9595 16.568 11.958 18 11.958V11.333V10.708C16.6036 10.708 15.4928 10.7068 14.624 10.825C13.7366 10.9457 13.0091 11.2014 12.4346 11.7821L12.8789 12.2217Z" fill="white"/>
<path d="M20 15H16" stroke="white" stroke-width="1.25" stroke-linecap="round"/>
</svg>
