<svg width="467" height="662" viewBox="0 0 467 662" fill="none" xmlns="http://www.w3.org/2000/svg">
<path d="M48.1775 185.26L114.894 147.845C115.984 147.209 116.347 145.847 115.802 144.757L70.9611 68.0196C70.3257 66.9298 68.9642 66.5665 67.8749 67.1114L1.15793 104.527C0.0686764 105.162 -0.294409 106.525 0.250219 107.614L45.0913 184.352C45.6359 185.442 47.0883 185.896 48.1775 185.26Z" fill="#FAF9F5"/>
<path d="M218.481 661.598C293.196 661.598 353.738 632.508 353.738 596.697C353.738 560.804 293.196 531.795 218.481 531.795C143.766 531.795 83.2241 560.886 83.2241 596.697C83.2241 632.508 143.766 661.598 218.481 661.598Z" fill="black" fill-opacity="0.08"/>
<path d="M293.623 638.786C299.886 638.786 304.878 632.519 304.878 624.709C304.878 616.899 299.795 610.633 293.623 610.633C287.36 610.633 282.367 616.899 282.367 624.709C282.367 632.429 287.45 638.786 293.623 638.786Z" fill="#1A1A1A"/>
<path d="M182.701 558.324C188.965 558.324 193.957 552.058 193.957 544.248C193.957 536.438 188.874 530.172 182.701 530.172C176.438 530.172 171.446 536.438 171.446 544.248C171.446 551.967 176.438 558.324 182.701 558.324Z" fill="#1A1A1A"/>
<path d="M160.371 647.049C166.635 647.049 171.627 640.783 171.627 632.973C171.627 625.163 166.544 618.897 160.371 618.897C154.108 618.897 149.116 625.163 149.116 632.973C149.116 640.783 154.199 647.049 160.371 647.049Z" fill="#1A1A1A"/>
<path d="M141.853 592.652C148.116 592.652 153.108 586.386 153.108 578.576C153.108 570.766 148.025 564.5 141.853 564.5C135.59 564.5 130.597 570.766 130.597 578.576C130.597 586.386 135.59 592.652 141.853 592.652Z" fill="#342E3D"/>
<path d="M258.223 555.781C264.486 555.781 269.479 549.515 269.479 541.705C269.479 533.895 264.395 527.629 258.223 527.629C251.96 527.629 246.967 533.895 246.967 541.705C246.967 549.515 251.96 555.781 258.223 555.781Z" fill="#1A1A1A"/>
<path d="M294.259 588.02C300.522 588.02 305.514 581.754 305.514 573.944C305.514 566.134 300.431 559.868 294.259 559.868C287.995 559.868 283.003 566.134 283.003 573.944C283.003 581.754 288.086 588.02 294.259 588.02Z" fill="#1A1A1A"/>
<path d="M229.448 543.975L258.132 523.542C261.218 521.363 265.575 522.089 267.935 525.177C270.204 528.355 269.387 532.714 266.301 534.985L240.25 553.602L301.883 558.142C305.787 558.415 308.6 561.775 308.328 565.589C308.056 569.494 304.697 572.309 300.794 572.037L239.977 567.496L300.885 611.269C303.971 613.539 304.788 617.898 302.428 621.076C301.066 622.984 298.888 623.982 296.709 623.982C295.348 623.982 293.805 623.619 292.625 622.711L220.552 570.856H217.557L166.452 628.251C165.182 629.795 163.185 630.612 161.369 630.612C159.735 630.612 158.101 630.067 156.649 628.796C153.744 626.253 153.563 621.803 156.105 618.897L198.949 570.856L135.862 576.124H135.772L135.681 576.033C135.681 576.033 135.59 576.033 135.499 576.033H135.409C135.409 576.033 135.318 576.033 135.227 576.033C131.596 576.033 128.601 573.218 128.238 569.585C127.875 565.68 130.779 562.32 134.682 562.047L200.764 556.508L175.53 538.436C172.443 536.256 171.626 531.806 173.986 528.628C176.165 525.54 180.613 524.723 183.79 527.084L204.758 542.159V453.979H229.448V543.975Z" fill="#F1EFE3"/>
<path d="M203.668 557.507C203.668 557.507 206.482 565.953 217.738 565.68C228.358 565.408 230.264 557.234 230.264 557.234" stroke="#1A1A1A" stroke-width="1.09078" stroke-miterlimit="10"/>
<path d="M205.575 458.334L205.488 448.164L228.37 448.078L228.447 451.248C228.405 452.937 227.092 454.557 224.879 455.976C222.691 457.379 219.762 458.492 216.815 459.204C213.868 459.916 210.952 460.214 208.798 460.021C207.715 459.924 206.874 459.707 206.32 459.395C205.786 459.094 205.575 458.743 205.575 458.338V458.334Z" fill="black" stroke="black" stroke-width="1.09078"/>
<path d="M115.167 423.829C115.167 423.829 100.734 303.046 88.3895 239.658C86.4833 229.85 93.745 220.678 103.639 220.133L202.126 214.957C214.834 214.321 225.817 223.402 227.633 236.026L252.867 415.292L115.167 423.829Z" fill="#555060"/>
<path d="M220.098 350.088C226.543 348.453 230.627 341.914 235.529 337.737C237.526 336.011 239.523 334.286 240.884 332.016C245.877 323.207 238.434 312.4 241.792 304.045C241.883 303.772 242.064 303.409 242.155 303.137L248.146 313.671L258.494 328.02C259.039 329.927 269.205 342.187 278.736 348.362C284.092 351.813 295.438 353.084 299.977 348.635C304.969 343.821 309.689 337.555 309.871 330.29C309.962 326.658 307.511 324.569 305.514 321.754C302.609 317.758 284.455 305.498 281.913 301.23C277.284 293.874 273.108 286.245 268.842 278.708C263.577 269.354 258.494 259.909 253.139 250.646C252.049 248.83 251.051 246.923 249.871 244.925C248.782 240.929 246.149 237.66 242.7 234.845C242.337 234.391 241.883 234.027 241.429 233.664C240.703 233.028 239.704 232.393 238.524 231.939C233.804 229.033 228.449 226.762 223.729 225.037C218.192 223.039 209.931 219.86 202.76 217.59C195.045 215.138 188.328 213.322 180.34 213.322C172.715 213.413 167.904 214.048 160.279 215.774C159.644 215.955 158.827 216.137 158.01 216.409C148.298 217.318 127.42 224.492 124.879 236.298C124.697 237.297 124.425 238.386 124.062 239.567C123.88 240.112 123.699 240.748 123.517 241.292L107.995 290.968C106.997 294.055 106.089 296.78 105.454 298.959C105.363 299.232 105.363 299.504 105.272 299.686L99.8258 317.213C96.558 328.837 103.638 342.005 115.166 345.274C126.422 348.453 138.041 342.187 141.671 331.198C144.122 336.829 148.025 343.64 153.653 346.183C159.644 348.816 166.27 349.089 172.806 349.27C181.974 349.543 191.142 349.089 200.219 348.816C206.664 348.635 213.29 351.359 219.735 349.997C219.826 350.178 219.916 350.088 220.098 350.088Z" fill="#D13435"/>
<path d="M170.083 171.638L174.622 223.584C175.167 232.302 179.887 237.932 188.329 238.841L189.236 238.931C189.872 239.022 190.416 239.022 191.052 239.022C199.766 239.204 206.574 231.394 205.575 222.676L201.309 183.262L170.083 171.638Z" fill="#EACAA8"/>
<path d="M181.248 137.311C176.8 134.314 170.628 133.042 165.817 133.315C155.287 133.95 145.847 140.217 138.313 147.663C131.868 154.02 128.873 162.829 127.784 171.82C126.604 181.628 128.51 190.709 126.331 200.335C124.607 207.873 119.16 214.048 116.346 221.223C111.626 233.392 115.62 248.285 125.696 256.549C135.771 264.723 151.293 265.54 162.186 258.456C180.249 246.651 176.346 223.675 175.166 205.512C174.168 188.893 178.797 173.364 184.606 158.107C187.511 150.297 190.507 148.117 184.97 140.943C184.062 139.49 182.791 138.31 181.248 137.311Z" fill="#1A1A1A"/>
<path d="M202.665 215.468L207.028 214.378C224.91 207.022 220.915 190.709 217.648 176.451L214.652 161.376C211.385 147.028 201.944 141.851 187.693 145.12C173.351 148.39 161.369 161.649 164.728 175.997L169.448 188.439C172.534 202.606 182.968 217.194 202.665 215.468Z" fill="#EACAA8"/>
<path d="M168.086 197.974C174.077 197.974 178.888 193.161 178.888 187.167C178.888 181.174 174.077 176.361 168.086 176.361C162.095 176.361 157.284 181.174 157.284 187.167C157.284 193.161 162.095 197.974 168.086 197.974Z" fill="#EACAA8"/>
<path d="M283.275 179.63C283.003 179.993 283.094 179.812 283.003 179.993L283.275 179.63Z" fill="#3B6FF5"/>
<path d="M190.688 153.294C190.688 153.294 191.233 161.195 202.942 162.284C214.652 163.374 214.47 159.923 217.103 174.181C217.103 174.181 225.181 125.777 178.616 136.947C132.05 148.117 170.355 191.799 170.355 191.799C170.355 191.799 169.992 176.724 177.073 171.457C188.328 163.465 190.688 162.92 190.688 153.294Z" fill="#1A1A1A"/>
<path d="M204.301 214.923C204.301 214.923 191.233 217.408 178.071 205.33C178.071 205.33 186.849 219.831 205.575 218.861L204.301 214.923Z" fill="#DFAD77"/>
<path d="M115.167 425.736V452.435C115.167 460.971 120.976 467.782 128.873 470.961C152.927 480.678 183.517 495.935 214.107 494.663C247.057 493.301 322.034 473.05 347.541 466.329C355.166 464.241 361.702 458.792 364.516 451.345C367.42 443.808 367.057 434.181 353.804 425.554C327.662 408.481 115.167 425.736 115.167 425.736Z" fill="#555060"/>
<path d="M235.711 458.792L270.93 428.278L229.084 424.101L235.711 458.792Z" fill="#E5C098"/>
<path d="M160.825 187.349C162.64 183.535 165.182 183.807 168.268 187.712L166.18 190.255" stroke="black" stroke-width="1.09078" stroke-miterlimit="10" stroke-linecap="round" stroke-linejoin="round"/>
<path d="M172.352 337.464C162.367 342.913 151.566 346.637 147.209 357.171C142.307 369.068 134.591 385.323 124.788 398.673C107.088 422.83 103.729 476.864 199.674 473.685C228.903 472.777 237.98 466.511 243.426 460.336C244.243 459.337 244.969 458.338 245.514 457.248C252.322 443.626 268.116 436.997 282.912 440.811L315.771 452.344C317.496 452.798 319.311 453.071 321.036 453.252C328.116 453.797 346.089 454.524 354.44 447.713C369.78 435.18 384.848 401.488 346.996 378.331C309.145 355.173 249.236 372.61 243.335 369.613C237.435 366.616 229.72 359.896 227.723 342.641C226.452 331.108 191.959 326.658 172.352 337.464Z" fill="#342E3D"/>
<path d="M296.8 415.11C297.526 415.474 341.278 436.361 328.116 453.343C325.756 456.34 280.279 441.991 275.741 440.902C263.487 437.996 251.142 435.09 238.888 432.093C226.361 429.096 215.832 427.461 222.004 410.479C228.177 393.86 253.683 404.939 265.393 407.664C275.105 409.843 287.813 410.751 296.8 415.11Z" fill="#EACAA8"/>
<path d="M281.46 305.044C281.46 305.044 275.65 307.859 274.017 316.85C274.017 316.85 278.737 307.223 287.905 307.223" stroke="black" stroke-width="1.09078" stroke-miterlimit="10" stroke-linecap="round" stroke-linejoin="round"/>
<path d="M198.222 187.622C198.313 181.537 194.319 176.542 189.145 176.451C183.971 176.361 179.705 181.174 179.614 187.168C179.523 193.252 183.517 198.247 188.691 198.338C193.774 198.519 198.04 193.706 198.222 187.622Z" stroke="#555060" stroke-width="1.09078" stroke-miterlimit="10"/>
<path d="M223.275 180.357C224.001 174.363 220.552 168.914 215.469 168.278C210.385 167.643 205.575 172.002 204.848 177.995C204.122 183.989 207.572 189.347 212.655 190.074C217.738 190.709 222.458 186.35 223.275 180.357Z" stroke="#555060" stroke-width="1.09078" stroke-miterlimit="10"/>
<path d="M197.859 183.353C200.129 180.72 202.398 179.357 204.667 180.356" stroke="#555060" stroke-width="1.09078" stroke-miterlimit="10"/>
<path d="M206.574 427.28C206.03 424.283 208.117 421.377 211.113 420.832L334.38 384.415C337.376 383.871 340.281 385.959 340.825 388.956C341.37 391.953 339.282 394.859 336.287 395.404L212.928 431.82C210.024 432.274 207.119 430.276 206.574 427.28Z" fill="#C8D1CB"/>
<path d="M294.258 346.455C298.706 348.09 300.612 354.265 298.434 360.168C296.255 366.071 290.809 369.613 286.361 367.887C281.914 366.252 280.007 360.077 282.186 354.174C284.364 348.271 289.811 344.82 294.258 346.455Z" fill="#C8D1CB"/>
<path d="M214.653 432.002L338.283 396.494C342.822 395.222 343.367 388.865 339.01 386.958L286.181 362.711C285.001 362.166 283.639 362.075 282.459 362.529L162.369 401.761C157.921 403.214 157.648 409.48 162.005 411.296C178.072 418.017 204.486 429.096 211.385 431.82C212.384 432.274 213.564 432.274 214.653 432.002Z" fill="#BAC4D3"/>
<path d="M209.479 429.096L343.094 390.591L366.241 301.865C367.512 296.78 363.064 292.058 357.89 292.875L239.342 326.022C233.533 327.657 229.176 332.379 227.996 338.191C222.459 365.617 209.479 429.096 209.479 429.096Z" fill="#DAE4EC"/>
<path d="M208.933 428.369C208.389 425.372 210.476 422.466 213.472 421.921L336.739 385.505C339.735 384.96 342.639 387.049 343.184 390.046C343.729 393.043 341.641 395.949 338.646 396.493L215.378 432.91C212.292 433.455 209.387 431.457 208.933 428.369Z" fill="#DAE4EC"/>
<path d="M300.068 349.724C303.699 352.812 303.336 359.26 299.16 364.073C295.075 368.886 288.812 370.248 285.181 367.161C281.551 364.073 281.914 357.625 286.089 352.812C290.174 347.908 296.528 346.546 300.068 349.724Z" fill="#BAC4D3"/>
<path d="M301.067 352.631C303.88 354.81 303.064 360.622 299.251 365.617C295.439 370.703 290.083 373.064 287.269 370.884C284.455 368.705 285.272 362.893 289.085 357.898C292.897 352.903 298.343 350.542 301.067 352.631Z" stroke="black" stroke-width="1.09078"/>
<path d="M310.107 349.431L314.416 351.816L325.378 331.295L321.069 328.91L310.107 349.431Z" fill="#3B6FF5"/>
<path d="M263.204 392.175L278.879 386.758L279.565 379.634L276.877 380.34C276.877 378.515 276.19 376.984 274.874 376.218C272.7 375.041 269.611 376.513 268.009 379.575C267.494 380.576 267.208 381.694 267.094 382.754L263.547 383.873L263.204 392.175Z" fill="#16DB65"/>
<path d="M111.899 341.279C103.821 324.932 130.053 312.037 138.041 328.383L168.177 378.422L168.087 378.603C174.985 382.69 187.149 390.228 188.329 393.497C190.053 398.037 202.58 409.934 201.127 413.567C199.766 417.199 186.786 405.393 184.335 401.852L190.053 433.092C190.053 433.092 191.415 436.906 188.601 437.814C187.784 438.086 185.787 437.451 184.789 433.818C181.339 421.558 178.979 414.475 178.979 414.384C178.979 414.475 182.338 426.008 183.699 433.546C184.244 436.27 183.881 437.814 182.338 438.086C180.522 438.359 179.705 437.178 178.435 434.636C177.799 433.455 177.164 432.002 176.528 430.458C176.619 432.365 176.256 433.637 175.167 434C169.902 435.453 166.725 424.374 166.725 424.283L162.186 417.835C159.736 414.747 158.193 411.115 157.557 407.21L154.834 389.864L111.899 341.279Z" fill="#EACAA8"/>
<path d="M183.336 430.731L176.347 404.031" stroke="black" stroke-width="1.09078" stroke-miterlimit="10"/>
<path d="M177.073 433.364L168.904 407.664" stroke="black" stroke-width="1.09078" stroke-miterlimit="10"/>
<path d="M168.45 428.824L161.006 409.571" stroke="black" stroke-width="1.09078" stroke-miterlimit="10"/>
<path d="M465.542 146.535L402.261 240.379L327.75 239.04L390.037 143.589L465.542 146.535Z" fill="#030303" stroke="#030303" stroke-width="1.09078"/>
<path d="M386.845 143.032L328.297 233.029L402.911 234.391L463.637 146.029L386.845 143.032Z" fill="#F1EFE3"/>
<path d="M401.914 218.952L321.672 217.59C351.263 207.237 386.846 142.941 386.846 142.941L463.638 145.938C435.318 194.069 401.914 218.952 401.914 218.952Z" fill="#FAF9F5"/>
<path d="M424.121 138.851C425.68 138.678 427.107 138.877 428.144 139.302C429.207 139.738 429.723 140.345 429.782 140.91L429.786 140.948L429.795 140.985C429.841 141.171 429.807 141.393 429.655 141.698L429.273 142.462L430.127 142.487L438.184 142.723L434.354 146.845H408.32L412.421 141.772L418.501 142.033L418.927 142.051L419.048 141.642C419.22 141.057 419.769 140.424 420.682 139.893C421.582 139.369 422.776 138.982 424.114 138.852L424.121 138.851Z" fill="#030303" stroke="#030303" stroke-width="1.09078"/>
<path d="M404.546 191.164C417.254 185.805 424.969 175.271 421.792 167.733C418.615 160.196 405.726 158.47 392.927 163.829C380.219 169.187 372.503 179.721 375.68 187.258C378.857 194.796 391.747 196.522 404.546 191.164Z" fill="#FFDC21"/>
<path d="M423.971 158.743C421.52 155.746 414.167 156.018 414.167 156.018L399.553 175.907L423.971 158.743Z" fill="#16DB65"/>
<path d="M423.971 158.743L399.553 175.907L427.329 176.724C432.594 163.647 423.971 158.743 423.971 158.743Z" fill="#D13435"/>
<path d="M201.036 4.90385L92.6554 43.863C90.8399 44.4987 89.9322 46.4966 90.6584 48.3129L115.53 117.604C116.165 119.42 118.162 120.328 119.978 119.602L228.359 80.6427C230.174 80.007 231.082 78.0091 230.356 76.1928L205.393 6.90176C204.758 5.1763 202.761 4.26816 201.036 4.90385Z" fill="#F1EFE3"/>
<path d="M207.754 57.9392L164.184 73.5592" stroke="black" stroke-width="1.09078" stroke-miterlimit="10" stroke-linecap="round" stroke-linejoin="round"/>
<path d="M204.487 49.0396L169.54 61.5719" stroke="black" stroke-width="1.09078" stroke-miterlimit="10" stroke-linecap="round" stroke-linejoin="round"/>
<path d="M139.382 71.3875L130.63 74.4102L138.923 98.4479L147.676 95.4253L139.382 71.3875Z" fill="#3B6FF5"/>
<path d="M126.092 84.6161L117.425 87.6091L123.023 103.835L131.69 100.842L126.092 84.6161Z" fill="#3B6FF5"/>
<path d="M150.347 47.4806L141.594 50.5032L156.078 92.4834L164.831 89.4608L150.347 47.4806Z" fill="#3B6FF5"/>
<path d="M201.672 41.0479L146.937 60.7545" stroke="black" stroke-width="1.09078" stroke-miterlimit="10" stroke-linecap="round" stroke-linejoin="round"/>
<path d="M249.299 96.0863L297.081 103.404C297.848 103.526 298.593 102.961 298.715 102.193L303.355 71.645C303.477 70.8775 302.912 70.1324 302.145 70.0103L254.362 62.6928C253.595 62.5707 252.85 63.1358 252.728 63.9032L248.098 94.503C248.018 95.2095 248.532 95.9642 249.299 96.0863Z" fill="#D13435"/>
<path d="M252.594 65.7368L275.572 88.7675L302.82 73.607" stroke="white" stroke-width="0.627904" stroke-miterlimit="10"/>
<path d="M269.331 82.7038L248.465 95.6044" stroke="white" stroke-width="0.627904" stroke-miterlimit="10"/>
<path d="M282.979 84.613L298.051 102.903" stroke="white" stroke-width="0.627904" stroke-miterlimit="10"/>
<path d="M148.48 80.4612H263.669C265.484 80.4612 267.118 78.9173 267.118 77.0102V3.45093C267.118 1.63465 265.575 0 263.669 0H148.48C146.665 0 145.031 1.54384 145.031 3.45093V77.1011C145.122 79.0081 146.665 80.4612 148.48 80.4612Z" fill="#FAF9F5"/>
<path d="M364.334 203.332L361.974 192.707C361.883 192.526 361.883 192.344 361.702 192.253L359.614 189.529C359.16 188.893 358.252 188.893 357.708 189.347L351.808 194.069C351.263 194.433 351.172 195.068 351.445 195.613L352.988 198.338C353.078 198.519 353.26 198.61 353.442 198.792L362.428 204.513C363.245 205.24 364.606 204.422 364.334 203.332Z" fill="#E5C098"/>
<path d="M361.793 191.617C359.523 188.439 350.355 195.068 352.715 198.247L322.67 156.926L319.947 153.203C318.131 150.66 318.676 147.118 321.218 145.393C322.216 144.666 323.396 144.303 324.485 144.303C326.301 144.303 327.935 145.121 329.024 146.574L333.29 152.476L361.793 191.617Z" fill="#D13435"/>
<path d="M359.342 201.788C359.342 201.788 359.705 198.247 362.882 199.609L364.516 205.784L359.342 201.788Z" fill="#030303" stroke="#030303" stroke-width="1.09078" stroke-miterlimit="10" stroke-linecap="round" stroke-linejoin="round"/>
<path d="M30.9312 107.615L66.0597 86.9089" stroke="#030303" stroke-width="1.09078" stroke-miterlimit="10" stroke-linecap="round" stroke-linejoin="round"/>
<path d="M33.5635 112.064L56.4379 98.533" stroke="#030303" stroke-width="1.09078" stroke-miterlimit="10" stroke-linecap="round" stroke-linejoin="round"/>
<path d="M41.2793 125.142L76.4078 104.436" stroke="#030303" stroke-width="1.09078" stroke-miterlimit="10" stroke-linecap="round" stroke-linejoin="round"/>
<path d="M43.9121 129.591L66.7865 116.06" stroke="#030303" stroke-width="1.09078" stroke-miterlimit="10" stroke-linecap="round" stroke-linejoin="round"/>
<path d="M50.7188 141.216L85.8473 120.51" stroke="#030303" stroke-width="1.09078" stroke-miterlimit="10" stroke-linecap="round" stroke-linejoin="round"/>
<path d="M53.4419 145.666L76.3163 132.134" stroke="#030303" stroke-width="1.09078" stroke-miterlimit="10" stroke-linecap="round" stroke-linejoin="round"/>
<path d="M26.1297 107.363L17.2212 112.63L22.4862 121.543L31.3948 116.275L26.1297 107.363Z" stroke="#030303" stroke-width="1.09078" stroke-miterlimit="10" stroke-linecap="round" stroke-linejoin="round"/>
<path d="M35.7293 123.63L26.8208 128.897L32.0858 137.81L40.9944 132.542L35.7293 123.63Z" stroke="#030303" stroke-width="1.09078" stroke-miterlimit="10" stroke-linecap="round" stroke-linejoin="round"/>
<path d="M45.2552 139.688L36.3467 144.955L41.6117 153.868L50.5202 148.6L45.2552 139.688Z" stroke="#030303" stroke-width="1.09078" stroke-miterlimit="10" stroke-linecap="round" stroke-linejoin="round"/>
<path d="M177.073 35.7806L176.801 36.0531L176.983 36.598L176.71 36.9612L176.62 37.4153L176.529 37.5061L176.62 37.5969C176.62 37.7786 176.529 37.9602 176.438 38.051L176.347 38.1418V38.2326C176.438 38.3234 176.438 38.4142 176.438 38.5051C176.438 38.5959 176.438 38.5959 176.438 38.6867V38.7775L176.347 39.0499L176.438 39.3224L176.257 39.504L176.347 39.8673L176.529 40.0489L176.347 40.2305V40.6846L176.166 41.0479L176.257 41.4111L176.075 41.5927L176.347 41.7744L175.984 42.3193V42.4101L176.257 42.5009L176.075 43.0458V43.1366C176.075 43.2274 176.075 43.3182 176.075 43.409V43.4998L176.438 43.5906L176.71 44.0447L176.529 44.408H176.801C176.892 44.5896 176.983 44.7712 176.983 44.862L176.62 45.2253C176.529 45.3161 176.347 45.4069 176.166 45.5886L175.803 45.7702L175.712 45.6794L175.44 45.7702L174.713 44.9529V44.5896C174.623 44.3172 174.532 43.9539 174.532 43.7723V43.409L174.35 42.0468L174.532 41.0479L174.35 40.503L173.987 41.1387L173.806 41.7744L173.624 41.8652L173.261 42.4101L172.716 42.9549L172.535 43.2274L171.99 43.6815L171.899 43.9539L171.173 44.408L170.356 45.3161L169.903 45.4069L169.63 45.6794C169.267 45.6794 168.904 45.4977 168.722 45.2253C167.996 44.862 167.633 44.408 167.633 43.7723L167.724 43.6815V43.4998V43.2274L167.542 42.9549L167.724 42.5917L167.815 42.1376L167.996 41.4111V41.3203V41.2295C167.996 41.1387 167.996 41.0479 168.087 40.957C168.087 40.957 168.087 40.8662 168.087 40.7754C168.087 40.6846 168.178 40.503 168.269 40.2305L168.45 40.1397C168.359 40.0489 168.269 39.9581 168.269 39.8673C168.269 39.7765 168.269 39.7765 168.269 39.6856C168.269 39.5948 168.269 39.5948 168.269 39.504C168.269 39.3224 168.359 39.1408 168.541 39.0499C168.632 38.8683 168.632 38.7775 168.813 38.5959L168.722 38.4142L168.995 38.051V37.9602C168.995 37.6877 169.086 37.4153 169.267 37.1429V36.6888L169.358 36.598C169.358 36.598 169.358 36.598 169.358 36.5072V36.4163C169.358 36.3255 169.358 36.2347 169.449 36.1439C169.539 35.9623 169.63 35.7806 169.903 35.4174C170.175 35.1449 170.356 34.8725 170.447 34.6001L170.538 34.6909L170.81 34.6001L170.901 34.5092L171.627 34.146L173.443 34.2368V34.4184L173.987 34.5092C174.35 34.5092 174.532 34.6001 174.713 34.8725C174.713 34.7817 174.713 34.7817 174.713 34.6909C174.713 34.6001 174.713 34.6001 174.713 34.6001L175.167 35.0541L175.621 35.1449L176.438 34.9633L176.71 35.5082L177.073 35.7806ZM174.804 36.9612L174.713 36.7796L174.532 36.6888L173.806 36.1439L173.352 36.0531H172.989L172.898 35.9623L172.716 36.0531L172.535 35.9623H171.99V36.1439L171.446 36.3255L171.355 36.4163H171.264C170.992 36.6888 170.81 36.8704 170.719 36.9612L170.538 37.5061L170.447 37.6877L170.719 38.051L170.356 38.3234L170.447 38.4142C170.266 38.6867 170.175 38.9591 170.175 39.2316L169.993 39.504V39.9581L169.812 40.1397L169.721 40.3213L169.63 40.4122V40.7754L169.539 40.8662C169.539 41.0479 169.539 41.2295 169.449 41.3203L169.539 41.4111L169.358 41.8652L169.449 42.0468L169.267 42.3193L169.449 42.7733L169.176 43.1366L169.267 43.5906V43.6815L169.358 43.7723H169.449C169.539 43.6815 169.63 43.5906 169.721 43.5906L169.63 43.409L169.993 43.3182L170.084 43.1366L171.446 42.0468L171.627 41.956L171.809 41.5927C171.9 41.5927 171.99 41.5019 172.172 41.4111L172.353 41.0479H172.535L172.444 40.6846L172.807 40.5938C172.807 40.503 172.898 40.4122 172.989 40.3213C173.08 40.2305 173.17 40.1397 173.17 40.0489L174.35 38.5051L174.532 38.1418V38.051L174.713 37.7786L174.804 37.5061L174.986 37.3245L174.804 36.9612Z" fill="#030303"/>
<path d="M201.128 39.05H195.137V45.2253H193.503V39.05H187.512V37.5062H193.503V31.3308H195.137V37.5062H201.128V39.05Z" fill="#030303"/>
<path d="M221.187 44.8621C220.824 45.3162 220.461 45.4978 220.189 45.4978H220.098L219.735 45.6794L219.281 45.4978L218.918 45.407L218.373 44.9529L217.829 44.8621L217.102 44.2264L216.376 43.3183L215.65 42.5918V42.4101C215.378 42.1377 215.196 41.8652 215.015 41.5928L214.924 41.4112L214.652 41.2295C214.652 41.0479 214.561 40.9571 214.561 40.9571L214.47 41.0479H214.288L214.016 41.4112L213.925 41.5928L213.562 41.8652L213.472 42.3193L213.108 42.5918C213.018 42.8642 213.018 43.0458 212.836 43.1366L212.564 43.2275V43.4091L212.291 43.8631L211.838 44.2264V44.3172L211.111 45.0437L210.567 45.8611L210.295 46.2243L210.022 46.4059L209.114 47.1325L208.57 46.5876L208.751 46.0427L209.024 45.7702L209.114 45.4978L209.387 45.3162L209.568 44.8621C209.568 44.8621 209.568 44.8621 209.659 44.8621C209.659 44.8621 209.75 44.8621 209.841 44.9529L210.113 44.3172L210.295 44.2264L210.567 43.7723L210.658 43.2275L211.021 43.1366C211.111 42.955 211.202 42.8642 211.293 42.7734V42.6826C211.293 42.5009 211.384 42.3193 211.656 42.1377C211.838 42.1377 211.928 41.9561 211.928 41.6836L212.11 41.5928L212.201 41.4112L212.291 41.3204C212.382 41.1387 212.564 41.0479 212.655 40.9571L212.836 40.503L213.018 40.4122V40.049L213.29 39.9581L213.562 39.7765L213.653 39.4133C213.653 39.3225 213.744 39.2316 213.925 39.1408L213.744 38.9592L213.653 38.7776L213.562 38.6868L213.108 37.8694L212.745 37.2337L212.473 36.6888L212.019 36.144H211.928L211.747 35.5083L212.655 35.3266L213.381 35.5083L213.472 35.9623L213.925 36.4164L213.835 36.598L214.016 37.0521L214.379 37.5062L214.47 37.9602L214.652 38.4143L214.833 38.2327V38.0511C214.924 38.0511 215.015 37.9602 215.015 37.9602H215.105C215.196 37.8694 215.287 37.7786 215.378 37.597V37.5062L215.65 37.4154V37.3245C215.741 37.2337 215.832 37.1429 216.013 36.9613V36.6888H216.285L216.558 36.5072L216.648 36.2348C216.739 36.2348 216.83 36.144 217.012 36.0532V35.9623H217.102L217.193 36.144C217.375 35.7807 217.556 35.5083 217.738 35.4174L217.919 35.2358L218.282 35.145L219.009 34.9634L219.372 35.5083L219.553 35.6899C219.553 36.144 219.372 36.4164 218.918 36.598H218.827L217.375 37.7786L217.193 38.1419L216.83 38.3235L216.558 38.5959L216.195 38.9592L215.741 39.1408L215.65 39.4133H215.468L215.741 39.8673L215.832 40.2306L215.922 40.4122L216.195 40.503C216.285 40.5938 216.376 40.7755 216.467 41.0479V41.1387L217.012 41.502L217.193 42.0469L217.556 42.3193L217.829 42.6826L218.192 42.955L218.282 43.1366L218.464 43.2275L218.555 43.3183L218.827 43.4091L219.099 43.8631L219.372 43.7723L219.735 43.954L221.006 44.1356L221.187 44.8621Z" fill="#030303"/>
<path d="M237.708 36.7797H224.093V35.2358H237.708V36.7797ZM237.708 41.3204H224.093V39.7765H237.708V41.3204Z" fill="#030303"/>
<path d="M160.189 353.085C160.189 353.085 202.489 334.014 223.276 348.635" stroke="black" stroke-width="1.09078"/>
<path d="M189.509 304.771C189.509 304.771 209.66 296.507 218.646 302.774" stroke="black" stroke-width="1.09078"/>
<path d="M237.025 263.463C242.562 279.809 243.47 297.7 239.566 314.591" stroke="black" stroke-width="1.09078"/>
<path d="M321.672 217.59L401.914 218.952" stroke="#030303" stroke-width="1.09078"/>
<path d="M200.31 193.252C200.31 193.252 206.664 194.887 209.387 191.073" stroke="black" stroke-width="1.09078" stroke-miterlimit="10" stroke-linecap="round" stroke-linejoin="round"/>
<path d="M192.958 175.816C192.958 175.816 181.702 175.089 177.98 181.719" stroke="black" stroke-width="1.09078" stroke-miterlimit="10" stroke-linecap="round" stroke-linejoin="round"/>
<path d="M216.558 168.46C216.558 168.46 207.663 168.278 204.486 172.637" stroke="black" stroke-width="1.09078" stroke-miterlimit="10" stroke-linecap="round" stroke-linejoin="round"/>
<path d="M184.607 185.079C184.607 185.079 190.961 186.714 193.684 182.899" stroke="black" stroke-width="1.09078" stroke-miterlimit="10" stroke-linecap="round" stroke-linejoin="round"/>
<path d="M191.335 185.189C191.35 185.398 191.373 185.62 191.382 185.781C191.4 186.069 191.392 186.313 191.333 186.517C191.279 186.705 191.18 186.867 190.983 187.003C190.773 187.149 190.418 187.289 189.816 187.351L189.812 187.352C189.643 187.371 189.451 187.297 189.272 187.063C189.091 186.826 188.964 186.469 188.964 186.078C188.964 185.88 188.997 185.8 189.009 185.777C189.012 185.771 189.011 185.767 189.038 185.756C189.083 185.739 189.167 185.723 189.323 185.716C189.483 185.71 189.644 185.715 189.872 185.715C190.2 185.715 190.517 185.592 190.756 185.482C190.882 185.424 191.005 185.36 191.115 185.303C191.196 185.261 191.268 185.223 191.335 185.189Z" fill="black" stroke="black" stroke-width="1.09078"/>
<path d="M207.027 178.813C207.027 178.813 213.381 180.447 216.104 176.633" stroke="black" stroke-width="1.09078" stroke-miterlimit="10" stroke-linecap="round" stroke-linejoin="round"/>
<path d="M213.668 178.958C213.682 179.156 213.703 179.363 213.712 179.515C213.729 179.803 213.722 180.046 213.663 180.25C213.609 180.438 213.51 180.6 213.312 180.737C213.103 180.882 212.748 181.023 212.146 181.085H212.141C211.972 181.104 211.78 181.03 211.602 180.796C211.421 180.56 211.294 180.203 211.294 179.812C211.294 179.613 211.327 179.532 211.339 179.51C211.342 179.504 211.34 179.501 211.367 179.491C211.412 179.473 211.497 179.456 211.652 179.45C211.81 179.443 211.968 179.449 212.189 179.449C212.525 179.473 212.843 179.362 213.078 179.258C213.282 179.168 213.506 179.044 213.668 178.958Z" fill="black" stroke="black" stroke-width="1.09078"/>
<path d="M199.311 200.971C199.311 200.971 203.759 197.793 210.748 197.793C210.748 197.793 210.748 202.243 206.3 203.151C201.853 204.15 199.311 200.971 199.311 200.971Z" fill="#B78A62"/>
<path d="M198.767 200.789C198.767 200.789 208.026 201.153 212.837 196.249" stroke="black" stroke-width="1.09078" stroke-miterlimit="10" stroke-linecap="round" stroke-linejoin="round"/>
</svg>
