<svg width="87" height="87" viewBox="0 0 87 87" fill="none" xmlns="http://www.w3.org/2000/svg">
<rect width="87" height="87" rx="43.5" fill="#F1EFE3"/>
<path d="M37.9055 47.5015V16H40.3194V47.5015C40.3194 49.256 40.3208 50.6586 40.2116 51.782C40.1006 52.924 39.8665 53.9044 39.316 54.7779C38.797 55.6016 38.1001 56.2985 37.2765 56.8175C36.403 57.3679 35.4226 57.602 34.2806 57.713C33.1572 57.8222 31.7546 57.8209 30 57.8209V55.407C31.8024 55.407 33.0676 55.4057 34.0471 55.3105C35.0079 55.2171 35.5656 55.0424 35.9896 54.7752C36.5082 54.4485 36.947 54.0097 37.2738 53.4911C37.5409 53.0671 37.7156 52.5094 37.809 51.5485C37.9042 50.569 37.9055 49.3039 37.9055 47.5015Z" fill="#D13435"/>
<path d="M42.673 47.3808V16H45.0869V47.3808C45.0869 50.7752 45.0996 52.7356 44.6137 54.3649C43.5199 58.032 40.6513 60.9007 36.9842 61.9944C35.3549 62.4804 33.3945 62.4677 30 62.4677V60.0538C33.5671 60.0538 35.0876 60.041 36.2942 59.6812C39.1811 58.8202 41.4394 56.5618 42.3004 53.6749C42.6603 52.4683 42.673 50.9479 42.673 47.3808Z" fill="#D13435"/>
<path d="M47.2594 47.3808V16H49.6733V47.3808C49.6733 50.9091 49.6799 52.86 49.3335 54.5035C48.0417 60.6334 43.2526 65.4224 37.1228 66.7143C35.4792 67.0607 33.5283 67.0541 30 67.0541V64.6402C33.6509 64.6402 35.2897 64.6336 36.625 64.3522C41.819 63.2576 45.8768 59.1997 46.9715 54.0058C47.2529 52.6705 47.2594 51.0316 47.2594 47.3808Z" fill="#D13435"/>
<path d="M51.8458 47.5015V16H54.2597V47.5015C54.2597 50.7115 54.2627 52.4421 54.0549 53.9107C52.7591 63.0659 45.5645 70.2606 36.4092 71.5563C34.9407 71.7642 33.21 71.7612 30 71.7612V69.3473C33.2925 69.3473 34.8131 69.3443 36.0709 69.1663C44.1616 68.0212 50.5197 61.6631 51.6648 53.5724C51.8428 52.3146 51.8458 50.7939 51.8458 47.5015Z" fill="#D13435"/>
</svg>
