<svg width="104" height="32" viewBox="0 0 104 32" fill="none" xmlns="http://www.w3.org/2000/svg">
<path d="M4.47755 17.8418V0H5.84474V17.8418C5.84474 18.8356 5.84549 19.63 5.78365 20.2663C5.72078 20.9131 5.58818 21.4683 5.27643 21.9631C4.98248 22.4296 4.58776 22.8243 4.12126 23.1183C3.62651 23.43 3.07125 23.5626 2.42443 23.6255C1.78817 23.6873 0.99375 23.6866 0 23.6866V22.3194C1.02086 22.3194 1.73741 22.3186 2.29218 22.2647C2.83639 22.2118 3.15227 22.1129 3.39241 21.9616C3.68612 21.7765 3.93465 21.528 4.11973 21.2342C4.27104 20.9941 4.36998 20.6782 4.42287 20.134C4.47679 19.5792 4.47755 18.8627 4.47755 17.8418Z" fill="#D13435"/>
<path d="M7.17775 17.7735V0H8.54494V17.7735C8.54494 19.696 8.55213 20.8064 8.27691 21.7292C7.65745 23.8062 6.03268 25.4309 3.95571 26.0504C3.03289 26.3256 1.92256 26.3184 0 26.3184V24.9512C2.02036 24.9512 2.88152 24.944 3.56491 24.7402C5.19999 24.2525 6.47907 22.9735 6.96673 21.3384C7.17054 20.655 7.17775 19.7938 7.17775 17.7735Z" fill="#D13435"/>
<path d="M9.77541 17.7735V0H11.1426V17.7735C11.1426 19.7719 11.1463 20.8768 10.9501 21.8077C10.2185 25.2795 7.50602 27.9919 4.03421 28.7236C3.10332 28.9198 1.99839 28.9161 0 28.9161V27.5489C2.06779 27.5489 2.99599 27.5452 3.7523 27.3858C6.69404 26.7658 8.99234 24.4675 9.61232 21.5258C9.77171 20.7695 9.77541 19.8413 9.77541 17.7735Z" fill="#D13435"/>
<path d="M12.3731 17.8418V0H13.7403V17.8418C13.7403 19.6599 13.742 20.6401 13.6242 21.4719C12.8904 26.6573 8.81542 30.7322 3.63006 31.4661C2.79831 31.5838 1.8181 31.5821 0 31.5821V30.2149C1.8648 30.2149 2.72606 30.2132 3.43847 30.1124C8.02088 29.4638 11.622 25.8627 12.2705 21.2803C12.3714 20.5679 12.3731 19.7066 12.3731 17.8418Z" fill="#D13435"/>
<path d="M87.6123 31.2284L94.5783 13.6367H96.7994L103.74 31.2284H100.56L95.6888 17.9021L90.8177 31.2284H87.6123ZM91.9534 27.5435L92.8621 24.9439H98.4904L99.4495 27.5435H91.9534Z" fill="#030303"/>
<path d="M68.416 31.2284V13.6367H72.7067L77.6283 26.7863H77.0983L82.0452 13.6367H86.3106V31.2284H83.3828V17.044L83.6352 17.0945L78.7893 29.6888H75.9373L71.0661 17.0945L71.3438 17.044V31.2284H68.416Z" fill="#030303"/>
<path d="M57.8891 31.5757C56.2402 31.5757 54.7931 31.1971 53.548 30.44C52.3029 29.6828 51.327 28.6143 50.6203 27.2346C49.9304 25.8549 49.5854 24.2564 49.5854 22.4392C49.5854 20.6051 49.9304 18.9982 50.6203 17.6185C51.327 16.2387 52.3029 15.1703 53.548 14.4131C54.7931 13.6559 56.2402 13.2773 57.8891 13.2773C59.5717 13.2773 61.0356 13.6559 62.2807 14.4131C63.5427 15.1703 64.5186 16.2387 65.2085 17.6185C65.9152 18.9814 66.2685 20.5883 66.2685 22.4392C66.2685 24.2732 65.9152 25.8801 65.2085 27.2598C64.5018 28.6228 63.5175 29.6828 62.2555 30.44C61.0104 31.1971 59.5549 31.5757 57.8891 31.5757ZM57.8891 28.7994C59.0165 28.7994 59.984 28.5386 60.7916 28.017C61.5993 27.4954 62.2218 26.7635 62.6593 25.8212C63.1136 24.8621 63.3408 23.7348 63.3408 22.4392C63.3408 21.1267 63.1136 19.9994 62.6593 19.0571C62.2218 18.098 61.5993 17.3577 60.7916 16.8361C59.984 16.3145 59.0165 16.0537 57.8891 16.0537C56.7954 16.0537 55.8448 16.3145 55.0371 16.8361C54.2295 17.3408 53.5985 18.0728 53.1442 19.0319C52.7067 19.9741 52.488 21.1099 52.488 22.4392C52.488 23.7516 52.7067 24.8874 53.1442 25.8464C53.5816 26.7887 54.2042 27.5206 55.0119 28.0422C55.8363 28.547 56.7954 28.7994 57.8891 28.7994Z" fill="#030303"/>
<path d="M39.7661 31.5757C38.1171 31.5757 36.6701 31.1971 35.4249 30.44C34.1798 29.6828 33.2039 28.6143 32.4972 27.2346C31.8073 25.8549 31.4624 24.2564 31.4624 22.4392C31.4624 20.6051 31.8073 18.9982 32.4972 17.6185C33.2039 16.2387 34.1798 15.1703 35.4249 14.4131C36.6701 13.6559 38.1171 13.2773 39.7661 13.2773C41.4487 13.2773 42.9126 13.6559 44.1577 14.4131C45.4197 15.1703 46.3956 16.2387 47.0854 17.6185C47.7921 18.9814 48.1455 20.5883 48.1455 22.4392C48.1455 24.2732 47.7921 25.8801 47.0854 27.2598C46.3787 28.6228 45.3944 29.6828 44.1325 30.44C42.8873 31.1971 41.4319 31.5757 39.7661 31.5757ZM39.7661 28.7994C40.8934 28.7994 41.8609 28.5386 42.6686 28.017C43.4762 27.4954 44.0988 26.7635 44.5363 25.8212C44.9906 24.8621 45.2177 23.7348 45.2177 22.4392C45.2177 21.1267 44.9906 19.9994 44.5363 19.0571C44.0988 18.098 43.4762 17.3577 42.6686 16.8361C41.8609 16.3145 40.8934 16.0537 39.7661 16.0537C38.6724 16.0537 37.7217 16.3145 36.9141 16.8361C36.1064 17.3408 35.4754 18.0728 35.0211 19.0319C34.5836 19.9741 34.3649 21.1099 34.3649 22.4392C34.3649 23.7516 34.5836 24.8874 35.0211 25.8464C35.4586 26.7887 36.0812 27.5206 36.8888 28.0422C37.7133 28.547 38.6724 28.7994 39.7661 28.7994Z" fill="#030303"/>
<path d="M23.6714 31.5818C21.972 31.5818 20.5923 31.0686 19.5322 30.0422C18.4722 29.0158 17.8748 27.6024 17.7402 25.802L20.6175 25.4739C20.7016 26.6685 20.9961 27.5351 21.5009 28.0735C22.0225 28.612 22.746 28.8812 23.6714 28.8812C24.7315 28.8812 25.4802 28.5362 25.9177 27.8464C26.372 27.1565 26.5992 26.1806 26.5992 24.9186V16.2364H19.8856V13.6367H29.5269V25.0953C29.5269 26.4246 29.2914 27.5771 28.8202 28.5531C28.3491 29.529 27.676 30.2777 26.8011 30.7993C25.9261 31.321 24.8829 31.5818 23.6714 31.5818Z" fill="#030303"/>
</svg>
